<?xml version="1.0" encoding="UTF-8"?>
<svg version="1.1" xmlns="http://www.w3.org/2000/svg" width="850" height="293">
<path d="M0 0 C0.29132813 0.60585938 0.58265625 1.21171875 0.8828125 1.8359375 C3.94597304 8.0971147 7.33140214 14.07477321 11 20 C16.66892884 19.31218476 21.27207945 16.3961226 26.20507812 13.70703125 C26.89150391 13.34738281 27.57792969 12.98773438 28.28515625 12.6171875 C29.21146851 12.11614502 29.21146851 12.11614502 30.15649414 11.60498047 C32.56244519 10.81542323 33.68689906 10.98207164 36 12 C37.37207031 13.73413086 37.37207031 13.73413086 38.578125 15.96484375 C39.23554688 17.16463867 39.23554688 17.16463867 39.90625 18.38867188 C40.3496875 19.22978516 40.793125 20.07089844 41.25 20.9375 C41.93835938 22.19336914 41.93835938 22.19336914 42.640625 23.47460938 C46 29.68845331 46 29.68845331 46 32 C51.37847879 29.73575328 56.66433341 27.31126703 61.9375 24.8125 C63.10635742 24.26045898 63.10635742 24.26045898 64.29882812 23.69726562 C66.19974355 22.79928717 68.09994634 21.89980044 70 21 C70.79664063 22.41152344 70.79664063 22.41152344 71.609375 23.8515625 C72.32279904 25.10944172 73.03634735 26.36725047 73.75 27.625 C74.27207031 28.55119141 74.27207031 28.55119141 74.8046875 29.49609375 C76.52574181 32.52387447 78.28832907 35.46763785 80.265625 38.3359375 C82 41 82 41 82 43 C83.10859375 42.44570312 84.2171875 41.89140625 85.359375 41.3203125 C89.57291667 39.21354167 93.78645833 37.10677083 98 35 C98.95567871 34.41387939 98.95567871 34.41387939 99.93066406 33.81591797 C102.73421242 32.71050756 104.18695234 32.96908598 107 34 C108.57739258 35.85766602 108.57739258 35.85766602 109.89453125 38.25390625 C110.37470703 39.10791016 110.85488281 39.96191406 111.34960938 40.84179688 C112.07374023 42.18854492 112.07374023 42.18854492 112.8125 43.5625 C113.31458984 44.46419922 113.81667969 45.36589844 114.33398438 46.29492188 C115.57129315 48.52207768 116.79230663 50.75668818 118 53 C118.58491211 52.72212646 119.16982422 52.44425293 119.77246094 52.15795898 C122.42608571 50.90561862 125.087772 49.67143901 127.75 48.4375 C128.67039062 47.99986328 129.59078125 47.56222656 130.5390625 47.11132812 C131.42851562 46.70205078 132.31796875 46.29277344 133.234375 45.87109375 C134.05131836 45.48880615 134.86826172 45.10651855 135.70996094 44.71264648 C138.30648695 43.90462309 139.50060328 43.99012559 142 45 C144.38508145 47.73277874 146.12956314 50.89851031 148 54 C148.5053125 54.77601562 149.010625 55.55203125 149.53125 56.3515625 C149.9953125 57.10179687 150.459375 57.85203125 150.9375 58.625 C151.35902344 59.29789063 151.78054688 59.97078125 152.21484375 60.6640625 C154.22378861 66.64092333 151.05591418 74.08697043 149.4375 80 C149.17936523 80.9497168 148.92123047 81.89943359 148.65527344 82.87792969 C146.37183519 91.06986502 143.65272857 99.07896539 140.71655273 107.05859375 C139.18838602 111.2704537 137.85899915 115.32615046 137.07421875 119.7421875 C135.81045468 126.66766914 133.35832218 133.23932265 131.0625 139.875 C128.30588078 147.86210188 125.72974358 155.78640086 123.77124023 164.01611328 C122.02418935 170.7753586 119.59013707 177.33752316 117.31640625 183.93359375 C115.13854207 190.33519452 113.25457897 196.70575189 111.67919922 203.28125 C110.7481333 207.00819106 109.57095991 210.62289801 108.3125 214.25 C108.08755859 214.91128906 107.86261719 215.57257813 107.63085938 216.25390625 C107.09154948 217.83741191 106.54645701 219.41894652 106 221 C98.74561271 220.53286142 92.32222788 218.25940048 85.48657227 215.87869263 C75.43906885 212.38284181 65.4453567 209.0563774 55.03125 206.81640625 C51.74744766 205.9319801 48.98518084 204.61397579 46 203 C46.03480469 202.17757812 46.06960938 201.35515625 46.10546875 200.5078125 C46.3524117 190.32435581 45.39892331 181.90835761 38.80078125 173.8203125 C32.4124651 167.36270876 25.20250516 164.03717277 16.125 163.6875 C7.44278606 163.91113278 0.23643618 166.91334722 -6 173 C-8.8414856 176.74297215 -10.92687793 180.79772552 -13 185 C-20.083359 184.40024114 -26.5052072 181.94162592 -33.1875 179.625 C-40.86692952 176.96953636 -48.48550075 174.52418719 -56.39038086 172.63037109 C-59.53095331 171.87174465 -62.61090812 170.98582383 -65.6875 170 C-66.68136719 169.690625 -67.67523438 169.38125 -68.69921875 169.0625 C-69.45847656 168.711875 -70.21773438 168.36125 -71 168 C-72.29974857 164.1007543 -71.46295231 162.18993618 -70.37109375 158.2421875 C-70.09609291 157.24673416 -70.09609291 157.24673416 -69.8155365 156.23117065 C-67.8137388 149.11367941 -65.45557659 142.11909724 -63.0625 135.125 C-60.13682725 126.485408 -57.26163522 117.84800803 -54.76416016 109.07348633 C-53.10937614 103.28028173 -51.28129923 97.54806709 -49.4375 91.8125 C-47.55769639 85.95920445 -45.70743769 80.11218707 -44.0625 74.1875 C-41.90370069 66.43459465 -39.398224 58.79410203 -36.90454102 51.14331055 C-34.18090028 42.73883863 -31.66670573 34.34779955 -29.9140625 25.68359375 C-26.85055907 12.35735384 -26.85055907 12.35735384 -21.66894531 8.07226562 C-15.38273341 4.21891121 -7.5145463 0 0 0 Z " fill="#D41A1F" transform="translate(367,43)"/>
<path d="M0 0 C0.29132813 0.60585938 0.58265625 1.21171875 0.8828125 1.8359375 C3.94597304 8.0971147 7.33140214 14.07477321 11 20 C16.66892884 19.31218476 21.27207945 16.3961226 26.20507812 13.70703125 C26.89150391 13.34738281 27.57792969 12.98773438 28.28515625 12.6171875 C29.21146851 12.11614502 29.21146851 12.11614502 30.15649414 11.60498047 C32.56244519 10.81542323 33.68689906 10.98207164 36 12 C37.37207031 13.73413086 37.37207031 13.73413086 38.578125 15.96484375 C39.23554688 17.16463867 39.23554688 17.16463867 39.90625 18.38867188 C40.3496875 19.22978516 40.793125 20.07089844 41.25 20.9375 C41.93835938 22.19336914 41.93835938 22.19336914 42.640625 23.47460938 C46 29.68845331 46 29.68845331 46 32 C51.37847879 29.73575328 56.66433341 27.31126703 61.9375 24.8125 C63.10635742 24.26045898 63.10635742 24.26045898 64.29882812 23.69726562 C66.19974355 22.79928717 68.09994634 21.89980044 70 21 C70.79664063 22.41152344 70.79664063 22.41152344 71.609375 23.8515625 C72.32279904 25.10944172 73.03634735 26.36725047 73.75 27.625 C74.27207031 28.55119141 74.27207031 28.55119141 74.8046875 29.49609375 C76.52574181 32.52387447 78.28832907 35.46763785 80.265625 38.3359375 C82 41 82 41 82 43 C83.10859375 42.44570312 84.2171875 41.89140625 85.359375 41.3203125 C89.57291667 39.21354167 93.78645833 37.10677083 98 35 C98.95567871 34.41387939 98.95567871 34.41387939 99.93066406 33.81591797 C102.73421242 32.71050756 104.18695234 32.96908598 107 34 C108.57739258 35.85766602 108.57739258 35.85766602 109.89453125 38.25390625 C110.37470703 39.10791016 110.85488281 39.96191406 111.34960938 40.84179688 C112.07374023 42.18854492 112.07374023 42.18854492 112.8125 43.5625 C113.31458984 44.46419922 113.81667969 45.36589844 114.33398438 46.29492188 C115.57129315 48.52207768 116.79230663 50.75668818 118 53 C118.77085937 52.62746094 119.54171875 52.25492188 120.3359375 51.87109375 C121.33882812 51.39800781 122.34171875 50.92492187 123.375 50.4375 C124.37273437 49.96183594 125.37046875 49.48617187 126.3984375 48.99609375 C127.25695312 48.66738281 128.11546875 48.33867188 129 48 C129.66 48.33 130.32 48.66 131 49 C130.36191406 49.4125 129.72382813 49.825 129.06640625 50.25 C124.17884395 53.35417483 124.17884395 53.35417483 121.42578125 58.140625 C121.40064453 59.18476562 121.40064453 59.18476562 121.375 60.25 C121.189375 62.10625 121.189375 62.10625 121 64 C119.90042969 64.40605469 118.80085937 64.81210938 117.66796875 65.23046875 C115.40412571 66.0944392 114.2755157 66.56890959 112.95800781 68.63037109 C112.15578133 70.75400481 111.52376822 72.86931968 110.9375 75.0625 C110.45282573 76.68910123 109.96711807 78.31539483 109.48046875 79.94140625 C109.23989746 80.77687988 108.99932617 81.61235352 108.75146484 82.47314453 C107.77787211 85.74692128 106.66654529 88.96475711 105.54833984 92.19140625 C103.41799822 98.35180697 101.52042532 104.36603546 100.43359375 110.80859375 C99.67236234 114.65589843 98.33377741 118.31877436 97 122 C94.78821768 119.78821768 94.34930594 118.49628287 93.4140625 115.5546875 C93.12499023 114.65008789 92.83591797 113.74548828 92.53808594 112.81347656 C92.23676758 111.8437793 91.93544922 110.87408203 91.625 109.875 C91.31336914 108.88467773 91.00173828 107.89435547 90.68066406 106.87402344 C88.47699238 99.77687063 86.57078739 92.65139859 84.828125 85.4296875 C82.54673758 74.93718444 82.54673758 74.93718444 77 66 C73.95625267 65.0831537 73.95625267 65.0831537 71 66 C68.9832525 68.00299216 68.9832525 68.00299216 68 71 C68.60275942 73.94911074 69.28083252 76.40023212 70.3125 79.1875 C73 86.90632992 73 86.90632992 73 89 C72.01 88.67 71.02 88.34 70 88 C69.26953125 86.15234375 69.26953125 86.15234375 68.8125 83.9375 C68.65394531 83.20402344 68.49539063 82.47054687 68.33203125 81.71484375 C68.22246094 81.14894531 68.11289062 80.58304687 68 80 C64.88214887 80.64644661 64.88214887 80.64644661 64 83 C64.66 83.33 65.32 83.66 66 84 C63.525 84.99 63.525 84.99 61 86 C60.01 83.69 59.02 81.38 58 79 C57.34 79 56.68 79 56 79 C54.67177964 76.83412151 53.49063865 74.61213433 52.31640625 72.359375 C47.04644599 66.99165831 39.39966504 65.7697955 32.12329102 65.51416016 C29.58351444 65.50142913 27.04355638 65.51070073 24.50390625 65.5390625 C23.13915685 65.54145356 21.77440411 65.54235085 20.40965271 65.5418396 C17.57309872 65.54494197 14.73705942 65.56131835 11.90063477 65.58837891 C8.27027855 65.62258407 4.64047879 65.62999957 1.0099802 65.62848854 C-1.79791035 65.62903243 -4.60568003 65.6399989 -7.41353035 65.65449142 C-9.40103316 65.66390823 -11.38856117 65.66740685 -13.37608337 65.67080688 C-15.18430321 65.68994644 -15.18430321 65.68994644 -17.02905273 65.70947266 C-18.61809669 65.72090805 -18.61809669 65.72090805 -20.23924255 65.73257446 C-22.99131518 65.99915873 -24.6530346 66.58352168 -27 68 C-26.93884641 78.63983145 -26.86178203 89.27941643 -26.76428509 99.9189806 C-26.71951789 104.85913786 -26.68027589 109.79921145 -26.65356445 114.73950195 C-26.62759466 119.50532224 -26.5872375 124.27082159 -26.53681374 129.03644371 C-26.5201021 130.85650332 -26.50861465 132.67661849 -26.50238609 134.49674416 C-26.4927915 137.04220009 -26.4647891 139.58682694 -26.43237305 142.13208008 C-26.43380814 142.88805481 -26.43524323 143.64402954 -26.4367218 144.4229126 C-26.37177191 148.44087514 -26.37177191 148.44087514 -24.62922668 151.9683075 C-22.27273014 153.46053681 -20.73071406 153.40960711 -18 153 C-16.23529209 151.95850918 -16.23529209 151.95850918 -15 150 C-14.52367324 146.78839051 -14.52367324 146.78839051 -14.56762695 143.05004883 C-14.5574353 142.34735367 -14.54724365 141.64465851 -14.53674316 140.92066956 C-14.506563 138.59937622 -14.49733994 136.27849517 -14.48828125 133.95703125 C-14.47143821 132.34704715 -14.45328848 130.73707623 -14.43388367 129.12712097 C-14.38633645 124.89063638 -14.35655782 120.65420521 -14.33044434 116.4175415 C-14.3006625 112.09400885 -14.25412406 107.77066039 -14.20898438 103.44726562 C-14.12289745 94.96491879 -14.05712502 86.48259138 -14 78 C-6.08 78 1.84 78 10 78 C10.01458252 80.1653833 10.02916504 82.3307666 10.04418945 84.56176758 C10.09449179 91.71047833 10.16107891 98.85897025 10.23571491 106.00746632 C10.28047205 110.34227966 10.31971616 114.67699786 10.34643555 119.01196289 C10.37241555 123.19426007 10.4127797 127.37619215 10.46318626 131.55826378 C10.47989103 133.15503084 10.49138279 134.7518611 10.49761391 136.34870338 C10.50721617 138.58287598 10.53522662 140.81610691 10.56762695 143.05004883 C10.57873001 144.32245926 10.58983307 145.59486969 10.60127258 146.90583801 C10.74654722 149.96601444 10.74654722 149.96601444 12.37077332 151.9070282 C14.74424124 153.49927656 16.20992034 153.48826394 19 153 C21.41916667 150.63668309 21.97411335 149.20622538 22.39872742 145.82354736 C22.40983047 144.57112244 22.42093353 143.31869751 22.43237305 142.02832031 C22.4425647 141.3352327 22.45275635 140.64214508 22.46325684 139.92805481 C22.49337191 137.64466249 22.5026501 135.36168977 22.51171875 133.078125 C22.52856661 131.49199023 22.54671701 129.9058688 22.56611633 128.31976318 C22.61361111 124.15069752 22.64342369 119.98168597 22.66955566 115.81243896 C22.69936392 111.55584021 22.74589331 107.29942784 22.79101562 103.04296875 C22.87704276 94.69540409 22.94439049 86.34782245 23 78 C25.37625177 77.89116404 27.74743976 77.81233304 30.125 77.75 C30.79015625 77.71648437 31.4553125 77.68296875 32.140625 77.6484375 C37.29346769 77.54740137 40.10254669 78.67869196 44 82 C46.94997981 85.75656475 47.37591941 88.56800689 47.38476562 93.28735352 C47.39487671 94.53537247 47.40498779 95.78339142 47.41540527 97.06922913 C47.41384933 97.7307152 47.4122934 98.39220127 47.41069031 99.07373238 C47.40619395 101.15484735 47.42026072 103.23512021 47.43908691 105.31614685 C47.48200785 110.48151493 47.49311865 115.64686281 47.50531006 120.81237793 C47.51684464 125.18434013 47.54041637 129.55591631 47.58000183 133.92771721 C47.59356002 135.97521627 47.58940453 138.02219118 47.58459473 140.06971741 C47.59470581 141.3145842 47.60481689 142.55945099 47.61523438 143.84204102 C47.61728882 144.93726578 47.61934326 146.03249054 47.62145996 147.16090393 C48.04132939 150.30997541 48.88233319 151.68264707 51 154 C47.125 153.125 47.125 153.125 46 152 C45.90634994 150.2507128 45.88255562 148.49763746 45.88647461 146.74584961 C45.88658791 145.06421974 45.88658791 145.06421974 45.88670349 143.34861755 C45.89444542 141.51896202 45.89444542 141.51896202 45.90234375 139.65234375 C45.9037587 138.41078018 45.90517365 137.16921661 45.90663147 135.89002991 C45.91129409 132.58394509 45.92028503 129.27792854 45.93133545 125.97186279 C45.94155173 122.6003885 45.94612955 119.22890717 45.95117188 115.85742188 C45.96222605 109.23826225 45.97898264 102.61913507 46 96 C44.515 95.505 44.515 95.505 43 95 C43 91.37 43 87.74 43 84 C41.35 83.34 39.7 82.68 38 82 C38 81.34 38 80.68 38 80 C33.71 80 29.42 80 25 80 C24.96241577 83.14934082 24.96241577 83.14934082 24.92407227 86.36230469 C24.84059443 93.29937745 24.75190899 100.2363766 24.66066074 107.17335129 C24.60549729 111.37921308 24.55208787 115.5850819 24.50268555 119.79101562 C24.4549449 123.84998814 24.40259869 127.90887752 24.34705925 131.96775055 C24.32667962 133.5162677 24.30795936 135.0648076 24.29092598 136.61336517 C24.26678453 138.78236613 24.23674364 140.95121117 24.20532227 143.12011719 C24.18977798 144.35477722 24.1742337 145.58943726 24.15821838 146.86151123 C24.02860395 149.43259961 23.75818804 151.55656704 23 154 C22.01 154 21.02 154 20 154 C20 154.66 20 155.32 20 156 C18.35 156 16.7 156 15 156 C15.33 156.99 15.66 157.98 16 159 C16.86625 158.773125 17.7325 158.54625 18.625 158.3125 C22.74580783 157.93094372 24.54566923 158.80178951 28 161 C28.66 161.99 29.32 162.98 30 164 C31.32 163.67 32.64 163.34 34 163 C34.33 164.98 34.66 166.96 35 169 C31.59687262 167.94124926 28.98646769 166.99097846 26 165 C18.07038953 162.59708774 9.40747515 163.45671315 2 167 C-5.60080015 171.40407373 -9.20641295 177.31029651 -13 185 C-20.083359 184.40024114 -26.5052072 181.94162592 -33.1875 179.625 C-40.86692952 176.96953636 -48.48550075 174.52418719 -56.39038086 172.63037109 C-59.53095331 171.87174465 -62.61090812 170.98582383 -65.6875 170 C-66.68136719 169.690625 -67.67523438 169.38125 -68.69921875 169.0625 C-69.45847656 168.711875 -70.21773438 168.36125 -71 168 C-72.29974857 164.1007543 -71.46295231 162.18993618 -70.37109375 158.2421875 C-70.09609291 157.24673416 -70.09609291 157.24673416 -69.8155365 156.23117065 C-67.8137388 149.11367941 -65.45557659 142.11909724 -63.0625 135.125 C-60.13682725 126.485408 -57.26163522 117.84800803 -54.76416016 109.07348633 C-53.10937614 103.28028173 -51.28129923 97.54806709 -49.4375 91.8125 C-47.55769639 85.95920445 -45.70743769 80.11218707 -44.0625 74.1875 C-41.90370069 66.43459465 -39.398224 58.79410203 -36.90454102 51.14331055 C-34.18090028 42.73883863 -31.66670573 34.34779955 -29.9140625 25.68359375 C-26.85055907 12.35735384 -26.85055907 12.35735384 -21.66894531 8.07226562 C-15.38273341 4.21891121 -7.5145463 0 0 0 Z " fill="#D41A20" transform="translate(367,43)"/>
<path d="M0 0 C2.56073239 1.24913775 3.79239559 2.06015825 5.5625 4.25 C6.35864258 6.75170898 6.35864258 6.75170898 6.95703125 9.74609375 C7.1876123 10.85364014 7.41819336 11.96118652 7.65576172 13.10229492 C8.01178467 14.87697144 8.01178467 14.87697144 8.375 16.6875 C10.84249576 28.42972887 13.89103202 39.83199498 17.5625 51.25 C19.15899057 45.75810939 20.62228427 40.23880219 22.05859375 34.703125 C22.78722272 31.92495781 23.51767161 29.14727324 24.24829102 26.36962891 C24.75107168 24.45027718 25.25039988 22.53001788 25.74633789 20.60888672 C26.46588016 17.82520059 27.19845992 15.04522831 27.93359375 12.265625 C28.26187416 10.97655243 28.26187416 10.97655243 28.5967865 9.66143799 C28.81033279 8.86340759 29.02387909 8.0653772 29.24389648 7.24316406 C29.42661606 6.54257874 29.60933563 5.84199341 29.79759216 5.12017822 C30.7131537 2.88165593 31.65633104 1.73392478 33.5625 0.25 C36.9718712 -0.11528977 39.44273824 -0.3640629 42.5 1.3125 C45.9973456 7.69001257 42.12083942 16.40910965 40.3125 22.8125 C39.9918457 23.97620117 39.67119141 25.13990234 39.34082031 26.33886719 C37.7094504 32.23918081 36.02783154 38.12364938 34.3125 44 C33.07804337 48.2479831 32.06568704 52.47708236 31.1875 56.8125 C29.88616157 63.06319113 28.31660998 69.21857128 26.625 75.375 C26.26365967 76.74507202 26.26365967 76.74507202 25.89501953 78.14282227 C23.54132297 86.518385 23.54132297 86.518385 19.5625 89.25 C16 89.4375 16 89.4375 12.5625 88.25 C8.84116303 81.65044147 7.74337999 73.95483414 6.125 66.625 C3.91593905 50.89691633 3.91593905 50.89691633 -2.4375 37.25 C-2.6334375 38.20132813 -2.829375 39.15265625 -3.03125 40.1328125 C-5.08661686 49.84974061 -7.45103058 59.48418915 -9.96826172 69.09075928 C-10.32181761 70.44333783 -10.6722593 71.79673438 -11.01953125 73.15093994 C-11.51543496 75.07960552 -12.02507419 77.00472317 -12.53515625 78.9296875 C-12.82914307 80.05101074 -13.12312988 81.17233398 -13.42602539 82.32763672 C-14.42059126 85.20114709 -15.34813633 87.05441966 -17.4375 89.25 C-21.29939437 90.00558803 -22.89732698 89.60602312 -26.1875 87.4375 C-28.39275914 84.31338289 -28.74791739 83.3963411 -29.24609375 79.82421875 C-30.1556361 74.36561787 -31.45051943 69.07140869 -32.86328125 63.7265625 C-33.09379181 62.85399307 -33.32430237 61.98142365 -33.5617981 61.08241272 C-34.28809104 58.3457702 -35.01854292 55.6102664 -35.75 52.875 C-38.6822304 41.88335896 -41.5840447 30.88509399 -44.29296875 19.8359375 C-44.50947586 18.97666656 -44.72598297 18.11739563 -44.9490509 17.23208618 C-47.76890584 5.54297672 -47.76890584 5.54297672 -45.3125 1.3125 C-42.53558875 -0.26108304 -40.57520673 -0.13420899 -37.4375 0.25 C-34.01809553 1.95312646 -33.42608729 3.28035844 -32.05859375 6.91796875 C-31.64714575 8.41994714 -31.25359537 9.92690605 -30.875 11.4375 C-30.66302979 12.23833008 -30.45105957 13.03916016 -30.23266602 13.86425781 C-28.56524463 20.32495816 -27.34428776 26.8264006 -26.19140625 33.39453125 C-24.67485071 43.53324894 -24.67485071 43.53324894 -20.4375 52.25 C-18.79328807 46.53607202 -17.3157928 40.82637904 -16.125 35 C-14.71617081 28.34142835 -13.14875069 21.72823364 -11.5 15.125 C-11.25918701 14.11663086 -11.01837402 13.10826172 -10.77026367 12.06933594 C-8.50316934 3.15756959 -8.50316934 3.15756959 -4.4375 0.25 C-2.4375 -0.75 -2.4375 -0.75 0 0 Z " fill="#545557" transform="translate(763.4375,107.75)"/>
<path d="M0 0 C1.80821983 -0.01902626 1.80821983 -0.01902626 3.65296936 -0.03843689 C4.95399094 -0.03550125 6.25501251 -0.03256561 7.59545898 -0.02954102 C8.95344808 -0.03410699 10.31143487 -0.0394138 11.66941833 -0.04542542 C14.51831427 -0.05435847 17.36693003 -0.05193604 20.21582031 -0.04199219 C23.83807421 -0.0305719 27.4593431 -0.05060394 31.08146763 -0.07990932 C33.88966369 -0.09841762 36.69763085 -0.09794897 39.50587273 -0.0922718 C41.48145075 -0.09204688 43.45700762 -0.1088376 45.43251038 -0.12608337 C53.13602228 -0.06721281 60.18634846 0.58843243 67.02905273 4.40405273 C69.45285887 6.88070657 71.23200695 9.45505452 73.02905273 12.40405273 C73.81795898 13.39405273 73.81795898 13.39405273 74.62280273 14.40405273 C77.33083113 18.2554709 77.16605642 22.15482028 77.20605469 26.76147461 C77.22530754 28.69367859 77.22530754 28.69367859 77.24494934 30.66491699 C77.25311483 32.06754165 77.26055892 33.47017067 77.26733398 34.87280273 C77.27140951 35.58125839 77.27548504 36.28971405 77.27968407 37.01963806 C77.3004993 40.76544906 77.31482379 44.51122385 77.32421875 48.25708008 C77.33530832 52.12428905 77.36974951 55.99092662 77.40939045 59.85793304 C77.43552186 62.83478876 77.44390714 65.81150708 77.44750023 68.78846741 C77.45237077 70.21423731 77.46399824 71.64000089 77.48253822 73.06565857 C77.50686364 75.05917517 77.50355137 77.052971 77.49902344 79.04663086 C77.50488968 80.18040161 77.51075592 81.31417236 77.51679993 82.4822998 C76.91754887 86.07199452 75.94790852 87.28018709 73.02905273 89.40405273 C69.40405273 89.34155273 69.40405273 89.34155273 66.02905273 88.40405273 C63.69648409 84.90519977 63.77843802 83.51062977 63.77368164 79.37548828 C63.76672272 78.13377365 63.75976379 76.89205902 63.75259399 75.61271667 C63.75327503 74.9494808 63.75395607 74.28624493 63.75465775 73.602911 C63.75562417 71.5215209 63.74266675 69.44064562 63.72567749 67.35932922 C63.67944705 61.44239315 63.65481205 55.52550891 63.64819336 49.60839844 C63.64316568 45.9866821 63.61885087 42.36550161 63.58286667 38.74396706 C63.57309532 37.36737098 63.57072219 35.99070092 63.57603836 34.61408043 C63.90197376 24.60150983 63.90197376 24.60150983 59.02905273 16.40405273 C55.38700284 13.98091335 51.52101875 13.97150488 47.27905273 13.77905273 C46.58166992 13.74038086 45.88428711 13.70170898 45.16577148 13.66186523 C43.45394455 13.5680665 41.74153591 13.48499099 40.02905273 13.40405273 C40.03793518 14.28244308 40.04681763 15.16083344 40.05596924 16.06584167 C40.13616323 24.34941937 40.19704157 32.63286643 40.23630142 40.91674328 C40.25716406 45.17545844 40.28545705 49.43385247 40.33081055 53.69238281 C40.37431625 57.80320193 40.39819981 61.91371244 40.40856171 66.02474403 C40.41594466 67.59204274 40.43036209 69.15932483 40.45197296 70.72649193 C40.48107125 72.92431321 40.48500628 75.1208643 40.4831543 77.31884766 C40.49203674 78.56905197 40.50091919 79.81925629 40.5100708 81.10734558 C39.9382295 85.02651921 38.90504019 86.71255091 36.02905273 89.40405273 C32.40405273 89.40405273 32.40405273 89.40405273 29.02905273 88.40405273 C26.56092108 84.70185525 26.78658079 82.87226523 26.80200195 78.45410156 C26.8017099 77.7514064 26.80141785 77.04871124 26.80111694 76.32472229 C26.80250966 74.00338366 26.81806786 71.6823665 26.83374023 69.36108398 C26.83747058 67.75111568 26.84031745 66.1411451 26.84231567 64.53117371 C26.84995047 60.29458341 26.86959761 56.05813033 26.89172363 51.82159424 C26.91218539 47.49818783 26.92131809 43.17475924 26.93139648 38.85131836 C26.95284369 30.36882651 26.98802455 21.8864725 27.02905273 13.40405273 C19.10905273 13.40405273 11.18905273 13.40405273 3.02905273 13.40405273 C3.05 15.56419922 3.07094727 17.7243457 3.0925293 19.94995117 C3.15880338 27.08645648 3.20298967 34.22297537 3.23630142 41.35970688 C3.25717777 45.68682887 3.28549586 50.01363562 3.33081055 54.34057617 C3.37426725 58.51622873 3.39818949 62.69157804 3.40856171 66.86743927 C3.41595346 68.46068343 3.43038794 70.05391097 3.45197296 71.64702606 C3.481006 73.87857443 3.48500899 76.10886938 3.4831543 78.34057617 C3.49203674 79.61076599 3.50091919 80.88095581 3.5100708 82.18963623 C3.02905273 85.40405273 3.02905273 85.40405273 1.22723389 87.84942627 C-0.97094727 89.40405273 -0.97094727 89.40405273 -4.59594727 89.34155273 C-7.97094727 88.40405273 -7.97094727 88.40405273 -9.97094727 85.40405273 C-10.17547329 82.76274253 -10.26466239 80.22598595 -10.26147461 77.58374023 C-10.26819183 76.78832825 -10.27490906 75.99291626 -10.28182983 75.17340088 C-10.30084136 72.54188813 -10.30473529 69.91062989 -10.30688477 67.27905273 C-10.31330941 65.45206598 -10.32003752 63.62508027 -10.32705688 61.7980957 C-10.33903676 57.96815606 -10.34273687 54.13830667 -10.34155273 50.30834961 C-10.34134926 45.39513778 -10.36867797 40.48250251 -10.40309715 35.56942749 C-10.42530569 31.7965223 -10.42939218 28.02375733 -10.42833328 24.25079346 C-10.43069735 22.43904631 -10.43956599 20.62729576 -10.45499802 18.81561279 C-10.47454076 16.28478247 -10.46886746 13.75521482 -10.45678711 11.22436523 C-10.46802612 10.47310364 -10.47926514 9.72184204 -10.49084473 8.94781494 C-10.45255908 5.7999348 -10.38265387 3.89186469 -8.31376648 1.4405365 C-5.39062308 0.14731222 -3.19887944 0.016315 0 0 Z " fill="#FDF9F9" transform="translate(349.970947265625,107.595947265625)"/>
<path d="M0 0 C2.16699219 1.52441406 2.16699219 1.52441406 4 4 C4.34923596 6.82017427 4.46849209 9.23720263 4.390625 12.046875 C4.38496521 12.81807678 4.37930542 13.58927856 4.37347412 14.3838501 C4.35113589 16.83987279 4.30094763 19.29442055 4.25 21.75 C4.22993154 23.41794763 4.21168137 25.08591821 4.1953125 26.75390625 C4.15127992 30.83650323 4.08227283 34.91800181 4 39 C5.63461182 38.97824707 5.63461182 38.97824707 7.30224609 38.95605469 C8.75097387 38.9443241 10.19970456 38.93294973 11.6484375 38.921875 C12.36443115 38.91140137 13.0804248 38.90092773 13.81811523 38.89013672 C22.0016179 38.84329354 29.72438979 40.43752731 36 46 C40.21591992 51.94196713 43.09534777 57.08716755 43.16113281 64.44213867 C43.17074036 65.31372116 43.1803479 66.18530365 43.19024658 67.08329773 C43.19449646 68.01873917 43.19874634 68.9541806 43.203125 69.91796875 C43.20882507 70.88978592 43.21452515 71.86160309 43.22039795 72.86286926 C43.22983819 74.91971756 43.23637805 76.97658092 43.24023438 79.03344727 C43.24991064 82.15863961 43.28093148 85.28316585 43.3125 88.40820312 C43.31903357 90.41145445 43.32428265 92.41471046 43.328125 94.41796875 C43.3404718 95.34328903 43.3528186 96.26860931 43.36553955 97.2219696 C43.33581641 106.01029324 41.26565527 113.35129013 35.75 120.2734375 C28.72120906 127.20809285 19.83697107 127.21336921 10.54833984 127.24023438 C8.50707648 127.24996626 6.46680957 127.28101631 4.42578125 127.3125 C3.14058594 127.31765625 1.85539062 127.3228125 0.53125 127.328125 C-0.64888672 127.3374707 -1.82902344 127.34681641 -3.04492188 127.35644531 C-6 127 -6 127 -7.65298462 125.78271484 C-9.4106408 123.4565352 -9.42344697 122.02371395 -9.50732422 119.12011719 C-9.54221954 118.09315735 -9.57711487 117.06619751 -9.61306763 116.00811768 C-9.63505219 114.86590759 -9.65703674 113.72369751 -9.6796875 112.546875 C-9.71270966 111.32812683 -9.74573181 110.10937866 -9.77975464 108.85369873 C-10.1809973 91.91058096 -10.1505668 74.95803279 -10.13037109 58.01123047 C-10.12459287 53.15886213 -10.12802148 48.30654816 -10.13394356 43.45418167 C-10.13755982 39.67085358 -10.13640706 35.88753839 -10.13381577 32.1042099 C-10.13315365 30.31336205 -10.13394959 28.522513 -10.13629532 26.73166656 C-10.13884853 24.24327977 -10.13494749 21.75498177 -10.12939453 19.26660156 C-10.13141876 18.54454025 -10.13344299 17.82247894 -10.13552856 17.07853699 C-10.08515141 4.82762343 -10.08515141 4.82762343 -7.8125 1 C-5.03217842 -0.53397053 -3.11660022 -0.4452286 0 0 Z M4 53 C4 73.13 4 93.26 4 114 C17.68238431 114.79056942 17.68238431 114.79056942 25 112 C29.30352331 106.49407443 29.59237882 101.76507261 29.53125 94.9375 C29.53699036 93.51232056 29.53699036 93.51232056 29.54284668 92.05834961 C29.5455575 90.05809463 29.53825472 88.0578037 29.52148438 86.05761719 C29.50006293 83.00895595 29.52131444 79.96265109 29.546875 76.9140625 C29.54423158 74.9635365 29.5391063 73.01301197 29.53125 71.0625 C29.53934692 70.15814209 29.54744385 69.25378418 29.55578613 68.32202148 C29.46908769 62.4237573 28.59282222 58.75455417 25 54 C18.20130732 52.30032683 11.00793201 53 4 53 Z " fill="#555558" transform="translate(42,69)"/>
<path d="M0 0 C3 0.5625 3 0.5625 5.15911865 2.67204285 C7.40736114 6.2021175 7.48498687 8.21051878 7.45410156 12.37231445 C7.45468567 13.03628738 7.45526978 13.70026031 7.45587158 14.38435364 C7.45309867 16.56537302 7.42204805 18.74500253 7.390625 20.92578125 C7.3831597 22.44320428 7.37746813 23.96063698 7.37347412 25.47807312 C7.35824032 29.46166856 7.3189788 33.4446757 7.2746582 37.42803955 C7.23365632 41.4968673 7.21545267 45.5657906 7.1953125 49.63476562 C7.1524816 57.61094631 7.0842585 65.58664986 7 73.5625 C7.495 73.0675 7.495 73.0675 8 72.5625 C8.45632812 72.11777344 8.91265625 71.67304688 9.3828125 71.21484375 C13.13107074 67.52541467 16.67239871 63.7254787 20.10546875 59.7421875 C22.98096048 56.4338898 25.93751254 53.19958657 28.88671875 49.95703125 C30.36830604 48.27826414 31.78331393 46.53948345 33.14453125 44.76171875 C33.75683594 44.03597656 34.36914062 43.31023437 35 42.5625 C35.66 42.5625 36.32 42.5625 37 42.5625 C37 41.9025 37 41.2425 37 40.5625 C39.99829952 39.02051739 41.37642895 38.38848017 44.6875 39.3125 C47 40.5625 47 40.5625 49 42.5625 C49.66447237 46.73918345 49.25213613 48.21231093 46.75 51.6875 C44.52733959 54.01119043 42.27337131 56.28912869 40 58.5625 C38.23275962 60.56706762 36.48624819 62.58852409 34.7421875 64.61328125 C33 66.5625 33 66.5625 30.1875 69.1875 C27.56812005 72.03139824 26.74175647 73.76380777 26 77.5625 C27.03468013 80.24244185 28.04006387 82.32712727 29.5 84.75 C29.87294189 85.40564941 30.24588379 86.06129883 30.63012695 86.73681641 C31.38578053 88.06418903 32.14915354 89.38719861 32.92041016 90.70556641 C34.40083646 93.25195322 35.79333029 95.84310019 37.1875 98.4375 C38.99203574 101.73358967 40.80431394 105.0253039 42.625 108.3125 C43.02332031 109.03566406 43.42164063 109.75882812 43.83203125 110.50390625 C44.59105326 111.84171428 45.37897402 113.16367377 46.19921875 114.46484375 C48.59130563 118.30057605 49.82319011 121.0349544 49 125.5625 C47.375 127.4375 47.375 127.4375 45 128.5625 C41.75 128.75 41.75 128.75 39 128.5625 C38.34 127.2425 37.68 125.9225 37 124.5625 C36.34 124.5625 35.68 124.5625 35 124.5625 C30.88949987 117.5372816 26.88959019 110.5016397 23.3125 103.1875 C20.80907363 98.08877841 18.12765016 93.30136388 15 88.5625 C10.85329961 90.93879089 10.85329961 90.93879089 8 94.5625 C7.89301784 96.68170427 7.84448196 98.8039751 7.82421875 100.92578125 C7.80037109 102.20517578 7.77652344 103.48457031 7.75195312 104.80273438 C7.71690172 106.83694128 7.68752938 108.87055776 7.67407227 110.9050293 C7.65853211 112.87050036 7.61665883 114.835707 7.57421875 116.80078125 C7.55963623 117.97680908 7.54505371 119.15283691 7.5300293 120.36450195 C6.89722657 124.18259636 5.74158734 125.87068617 3 128.5625 C0 129.125 0 129.125 -3 128.5625 C-5.49137399 126.57235632 -6.82846784 125.36505117 -7.50336456 122.20739746 C-7.50487267 121.33135864 -7.50638077 120.45531982 -7.50793457 119.55273438 C-7.52485352 118.03860962 -7.52485352 118.03860962 -7.54211426 116.49389648 C-7.52996887 114.84176147 -7.52996887 114.84176147 -7.51757812 113.15625 C-7.5245874 111.9916626 -7.53159668 110.8270752 -7.53881836 109.62719727 C-7.55644432 105.77205667 -7.54475841 101.91764826 -7.53125 98.0625 C-7.53394357 95.38736047 -7.53781853 92.71224331 -7.54284668 90.03710938 C-7.55012197 84.4283045 -7.54053871 78.81971037 -7.52148438 73.2109375 C-7.49971557 66.72832093 -7.50676705 60.24620758 -7.52879 53.76360321 C-7.54694759 48.19573411 -7.54950066 42.62801641 -7.53903532 37.06012726 C-7.53280222 33.7355433 -7.53353198 30.41124748 -7.54518127 27.08666992 C-7.55531748 23.38034843 -7.53988485 19.67499893 -7.51757812 15.96875 C-7.52567505 14.86732666 -7.53377197 13.76590332 -7.54211426 12.63110352 C-7.53083496 11.62168701 -7.51955566 10.61227051 -7.50793457 9.57226562 C-7.50642647 8.69622681 -7.50491837 7.82018799 -7.50336456 6.91760254 C-6.59175859 2.65245219 -4.16852809 0.78159902 0 0 Z " fill="#565758" transform="translate(246,68.4375)"/>
<path d="M0 0 C2.9375 0.5 2.9375 0.5 4.6027832 2.02832031 C6.47244188 5.49062587 6.31011636 8.71498334 6.23046875 12.546875 C6.22622391 13.31807678 6.22197906 14.08927856 6.21760559 14.8838501 C6.20085383 17.33959315 6.16320939 19.79450629 6.125 22.25 C6.10994857 23.91795687 6.09626097 25.58592665 6.08398438 27.25390625 C6.05096194 31.33625578 5.99920484 35.41798732 5.9375 39.5 C6.93982666 39.48332275 7.94215332 39.46664551 8.97485352 39.44946289 C10.31786721 39.43596821 11.66088511 39.42288818 13.00390625 39.41015625 C14.97145874 39.38514038 14.97145874 39.38514038 16.97875977 39.35961914 C25.41738116 39.65886103 32.64573067 41.50990994 38.5625 47.75 C45.48104522 56.02808468 45.40030099 64.84632325 45.37109375 75.140625 C45.37566172 76.55450693 45.38096911 77.96838664 45.38697815 79.38226318 C45.39586989 82.3307809 45.39352804 85.2790271 45.38354492 88.22753906 C45.37200633 92.00280302 45.39235979 95.77713836 45.42146206 99.55228043 C45.43980758 102.46569741 45.43953593 105.37889052 45.43382454 108.29235077 C45.43367141 109.68460146 45.43970929 111.07686739 45.45211601 112.46906281 C45.46700568 114.4119401 45.45372938 116.35497147 45.43920898 118.29785156 C45.43904282 119.4017926 45.43887665 120.50573364 45.43870544 121.64312744 C44.81761444 125.18334805 43.78574611 126.36363196 40.9375 128.5 C37.375 129 37.375 129 33.9375 128.5 C31.25329061 126.06806014 30.94786025 124.62799008 30.65332031 120.98925781 C30.67650633 119.56024461 30.715043 118.13143091 30.765625 116.703125 C30.79392616 115.07750116 30.82053542 113.45184724 30.84570312 111.82617188 C30.86286377 110.96209717 30.88002441 110.09802246 30.89770508 109.20776367 C31.01018039 101.55461223 30.8520453 93.89793793 30.72998047 86.24560547 C30.70135679 84.22714283 30.68035433 82.20855947 30.66650391 80.18994141 C30.64511197 77.22501863 30.59860572 74.26140452 30.546875 71.296875 C30.54564636 70.39998962 30.54441772 69.50310425 30.54315186 68.57904053 C30.4157636 63.13699875 29.73735538 59.70919962 25.9375 55.5 C21.97481718 54.17561726 17.82933714 54.16069087 13.6875 53.9375 C12.94242188 53.89431641 12.19734375 53.85113281 11.4296875 53.80664062 C9.599151 53.70103275 7.76834824 53.60005799 5.9375 53.5 C5.94638245 54.39535965 5.95526489 55.2907193 5.9644165 56.21321106 C6.04451176 64.64457439 6.10543855 73.07581025 6.14474869 81.50746632 C6.16563783 85.84246338 6.19397919 90.17714652 6.23925781 94.51196289 C6.282669 98.69409463 6.30662711 102.87592414 6.31700897 107.05826378 C6.32440892 108.6551254 6.33885922 110.25197018 6.36042023 111.84870338 C6.38939285 114.08285088 6.3934588 116.31574419 6.39160156 118.55004883 C6.40048401 119.82245926 6.40936646 121.09486969 6.41851807 122.40583801 C5.9375 125.5 5.9375 125.5 4.13568115 127.44218445 C0.79936399 129.04769734 -1.55560893 128.40919398 -5.0625 127.5 C-7.22611253 124.2545812 -7.31559967 123.35881478 -7.32992554 119.61048889 C-7.34272049 118.09842613 -7.34272049 118.09842613 -7.35577393 116.55581665 C-7.35441437 114.89828873 -7.35441437 114.89828873 -7.35302734 113.20727539 C-7.35974457 112.04283401 -7.36646179 110.87839264 -7.37338257 109.67866516 C-7.39242579 105.81828581 -7.39628986 101.95807969 -7.3984375 98.09765625 C-7.40323794 96.09725749 -7.40804159 94.09685869 -7.41335833 92.09646124 C-7.42964399 85.80558695 -7.43452709 79.5147699 -7.43310547 73.22387695 C-7.43190361 66.73392976 -7.45301353 60.24431489 -7.4845928 53.75445181 C-7.51074015 48.18238448 -7.52147344 42.61042581 -7.52019465 37.03829759 C-7.5196846 33.7103071 -7.52722626 30.38267888 -7.54655075 27.05473518 C-7.56608371 23.34358025 -7.56042202 19.6332871 -7.54833984 15.92211914 C-7.55957886 14.81912476 -7.57081787 13.71613037 -7.58239746 12.57971191 C-7.57400848 11.56885025 -7.56561951 10.55798859 -7.55697632 9.51649475 C-7.55806585 8.63915711 -7.55915539 7.76181948 -7.56027794 6.85789585 C-6.6498842 2.54550382 -4.22755985 0.69021385 0 0 Z " fill="#555658" transform="translate(591.0625,68.5)"/>
<path d="M0 0 C0 0.66 0 1.32 0 2 C0.59425781 2.22945313 1.18851563 2.45890625 1.80078125 2.6953125 C4.58965224 4.34981145 5.57419566 6.07971176 7.1875 8.875 C7.69667969 9.73867187 8.20585937 10.60234375 8.73046875 11.4921875 C10.59508666 15.17552504 11.12440906 18.33630975 11.16113281 22.44213867 C11.17074036 23.31372116 11.1803479 24.18530365 11.19024658 25.08329773 C11.19449646 26.01873917 11.19874634 26.9541806 11.203125 27.91796875 C11.20882507 28.88978592 11.21452515 29.86160309 11.22039795 30.86286926 C11.22983819 32.91971756 11.23637805 34.97658092 11.24023438 37.03344727 C11.24991064 40.15863961 11.28093148 43.28316585 11.3125 46.40820312 C11.31903357 48.41145445 11.32428265 50.41471046 11.328125 52.41796875 C11.3404718 53.34328903 11.3528186 54.26860931 11.36553955 55.2219696 C11.3312928 65.34780366 8.58106224 73.41893776 1.3125 80.6875 C-4.34983965 85.08681151 -11.2254983 86.65074653 -18.30859375 86.41796875 C-24.54735659 85.44910427 -30.92680449 83.29258128 -35.21484375 78.55078125 C-43.27160598 67.0386024 -42.18664147 54.34555142 -42.18530273 40.80151367 C-42.18750489 38.30695915 -42.20576928 35.81283702 -42.22460938 33.31835938 C-42.22754166 31.70833482 -42.22952756 30.0983082 -42.23046875 28.48828125 C-42.23765427 27.7547493 -42.24483978 27.02121735 -42.25224304 26.26545715 C-42.22195827 19.32915454 -41.15742864 12.9704145 -37.0625 7.1875 C-36.30646484 6.09501953 -36.30646484 6.09501953 -35.53515625 4.98046875 C-26.50997199 -6.66270789 -12.22122837 -4.59379506 0 0 Z M-25 13 C-28.14252721 18.71690864 -28.45451055 23.61883333 -28.43359375 30.0625 C-28.4388356 31.01261963 -28.44407745 31.96273926 -28.44947815 32.94165039 C-28.4558752 34.94188463 -28.45459152 36.9421566 -28.44604492 38.94238281 C-28.43752538 41.99091902 -28.46634441 45.03758554 -28.49804688 48.0859375 C-28.49965896 50.03645778 -28.49908122 51.98698135 -28.49609375 53.9375 C-28.50732773 54.84185791 -28.51856171 55.74621582 -28.53013611 56.67797852 C-28.46520221 62.61550872 -27.46332913 66.13595022 -24 71 C-20.5156679 73.05654188 -16.73826702 73.27494557 -12.77734375 72.6484375 C-8.55773444 71.33917555 -6.32100975 69.74003761 -3.8618927 65.93383789 C-2.11223519 62.00811257 -2.43296267 57.78967812 -2.46875 53.5625 C-2.46300964 52.06505249 -2.46300964 52.06505249 -2.45715332 50.53735352 C-2.4544389 48.43276965 -2.46176708 46.32815178 -2.47851562 44.22363281 C-2.49993136 41.01029939 -2.47869735 37.79920174 -2.453125 34.5859375 C-2.45576836 32.53645342 -2.4608935 30.48697073 -2.46875 28.4375 C-2.46065308 27.48109619 -2.45255615 26.52469238 -2.44421387 25.53930664 C-2.52547887 19.73132556 -3.15306607 16.43411626 -7 12 C-12.87898109 8.50438962 -19.50179168 9.12626232 -25 13 Z " fill="#545557" transform="translate(212,111)"/>
<path d="M0 0 C10.42909626 12.30875896 9.17928353 26.1780317 9.1875 41.625 C9.19974609 42.84445313 9.21199219 44.06390625 9.22460938 45.3203125 C9.242984 56.78607687 9.15603566 69.08526335 1 78 C-5.50115865 82.8085493 -12.04527513 84.93668025 -20.1171875 84.44140625 C-28.57404354 83.14652179 -33.69531431 80.03124793 -39.30859375 73.609375 C-43.83013923 66.63387297 -44.44959918 60.32079233 -44.3984375 52.21875 C-44.40274277 50.69936829 -44.40274277 50.69936829 -44.40713501 49.14929199 C-44.40916706 47.0179793 -44.40369765 44.8866476 -44.39111328 42.75537109 C-44.37504783 39.50966333 -44.39099181 36.2652007 -44.41015625 33.01953125 C-44.40817367 30.94010144 -44.40432968 28.8606724 -44.3984375 26.78125 C-44.40451019 25.81956909 -44.41058289 24.85788818 -44.4168396 23.86706543 C-44.32339652 14.83005441 -41.84426077 8.0506806 -36.09375 0.984375 C-32.56355832 -2.36140368 -28.62274054 -3.71890663 -24 -5 C-23.01 -5.28875 -22.02 -5.5775 -21 -5.875 C-13.8478158 -6.17300768 -5.73140767 -4.46434027 0 0 Z M-28.65087891 12.96704102 C-30.62700355 17.40956661 -30.42881862 21.5292221 -30.3984375 26.33984375 C-30.40130768 27.33955704 -30.40417786 28.33927032 -30.40713501 29.36927795 C-30.40917303 31.47983365 -30.40366153 33.59040835 -30.39111328 35.70092773 C-30.37507321 38.92279557 -30.39096259 42.14340574 -30.41015625 45.36523438 C-30.40817344 47.41927359 -30.40432899 49.47331203 -30.3984375 51.52734375 C-30.40451019 52.48688461 -30.41058289 53.44642548 -30.4168396 54.43504333 C-30.36174598 59.7038771 -29.96702244 63.45016901 -27 68 C-23.90007029 70.35650765 -20.47236703 71.05792919 -16.6171875 70.90625 C-12.57601589 70.2127156 -10.47998861 69.4679889 -7.5 66.5625 C-5.51481096 63.17113538 -4.8732224 60.57719933 -4.82299805 56.71557617 C-4.81016281 55.85425583 -4.79732758 54.99293549 -4.78410339 54.10551453 C-4.77671646 53.17737442 -4.76932953 52.24923431 -4.76171875 51.29296875 C-4.753647 50.33481766 -4.74557526 49.37666656 -4.73725891 48.38948059 C-4.72342807 46.36115321 -4.71270144 44.33280264 -4.70483398 42.30444336 C-4.68762331 39.20967299 -4.64372831 36.11597163 -4.59960938 33.02148438 C-4.58948188 31.04948701 -4.58096595 29.07748058 -4.57421875 27.10546875 C-4.55671066 26.18340134 -4.53920258 25.26133392 -4.52116394 24.31132507 C-4.53999095 18.70758504 -5.18470304 15.40452867 -9 11 C-15.72592114 6.61352969 -23.17196592 6.43885381 -28.65087891 12.96704102 Z " fill="#555658" transform="translate(696,113)"/>
<path d="M0 0 C3.125 0.25 3.125 0.25 4.734375 1.53125 C6.65004237 3.89892878 7.35302778 6.52427414 8.2421875 9.40234375 C9.09860997 12.16487463 10.02615399 14.89768693 10.96582031 17.6328125 C13.08086472 23.82440916 14.92069015 30.0281435 16.44140625 36.39453125 C17.14622656 39.33866636 17.90286474 42.26366016 18.6875 45.1875 C18.91566406 46.04214844 19.14382813 46.89679688 19.37890625 47.77734375 C20.15198858 50.33944384 21.09581482 52.78083898 22.125 55.25 C22.75940928 53.77484445 23.38190827 52.29456668 24 50.8125 C24.34804688 49.98878906 24.69609375 49.16507813 25.0546875 48.31640625 C25.91564989 45.84978043 26.51626613 43.58596087 27.046875 41.04296875 C28.14066584 35.88583617 29.78460884 30.97917633 31.5 26 C33.92038235 18.88687321 36.23015115 11.77456317 38.30078125 4.55078125 C39.125 2.25 39.125 2.25 41.125 0.25 C47.3467077 -0.31560979 47.3467077 -0.31560979 49.84838867 1.50244141 C51.96726809 4.40298432 51.21146041 6.79034872 50.75244141 10.21777344 C49.63896984 15.59883057 47.83096752 20.73387166 46.00506592 25.90936279 C44.82849597 29.24869789 43.68835154 32.60033751 42.55078125 35.953125 C42.33019043 36.60223846 42.10959961 37.25135193 41.88232422 37.9201355 C39.9615151 43.62603062 38.52510087 49.32862585 37.18359375 55.1953125 C35.57849041 61.74821058 33.23911438 68.11021678 31.02880859 74.47802734 C28.67365221 81.32761672 26.79217067 88.20297061 25.125 95.25 C22.71567375 105.20571815 19.41044508 114.08788913 10.51171875 119.98046875 C5.51724044 122.63710615 -0.30453126 122.86546377 -5.875 122.25 C-6.865 121.59 -7.855 120.93 -8.875 120.25 C-9.53845852 114.16829689 -9.53845852 114.16829689 -7.6953125 111.6171875 C-4.65540352 109.33399406 -1.13013098 108.9738788 2.53125 108.19140625 C5.71850384 107.03458671 6.4873957 106.20059474 8.125 103.25 C16.20024785 82.10498683 12.23076221 67.84212151 4.94360352 46.90185547 C3.10339409 41.54296001 1.68886017 36.34524007 0.67480469 30.77514648 C-0.57231581 25.0473635 -2.74713386 19.52307394 -4.74804688 14.02148438 C-7.15237231 6.94561826 -7.15237231 6.94561826 -5.63671875 3.14453125 C-2.95127036 0.25663221 -2.95127036 0.25663221 0 0 Z " fill="#FDF8F8" transform="translate(440.875,107.75)"/>
<path d="M0 0 C9.92476378 10.89067753 7.25789565 28.27933317 6.91845703 42.01025391 C6.85509687 44.71509423 6.81397499 47.41973285 6.7734375 50.125 C6.73442638 51.86591627 6.69410848 53.60680386 6.65234375 55.34765625 C6.64281677 56.14569672 6.63328979 56.94373718 6.62347412 57.76596069 C6.40263503 65.04041594 4.37682622 71.05286128 -0.89453125 76.32421875 C-8.83552001 81.5107686 -15.41458936 83.18030912 -24.89453125 82.32421875 C-32.10621597 80.75692163 -36.49794464 77.31786372 -41.30078125 71.8359375 C-45.39476023 65.3839069 -45.1898139 58.60636091 -45.16015625 51.203125 C-45.1620697 50.14439682 -45.16398315 49.08566864 -45.16595459 47.99485779 C-45.16731112 45.76341513 -45.16365196 43.53196445 -45.15527344 41.30053711 C-45.14457728 37.90134789 -45.15518158 34.50268841 -45.16796875 31.10351562 C-45.16664685 28.92838426 -45.16408384 26.75325322 -45.16015625 24.578125 C-45.16420471 23.56955948 -45.16825317 22.56099396 -45.17242432 21.52186584 C-45.11873108 13.36422511 -44.5790755 6.11869384 -38.80078125 -0.0703125 C-27.21277933 -9.82987969 -11.46837705 -10.14419331 0 0 Z M-30.53710938 11.27758789 C-32.54248119 15.77849345 -32.36228245 20.00602945 -32.36328125 24.8828125 C-32.37089478 25.90472183 -32.3785083 26.92663116 -32.38635254 27.97950745 C-32.39714061 30.13711101 -32.40001191 32.29476674 -32.39550781 34.45239258 C-32.39453555 37.7471451 -32.43617242 41.03956793 -32.48046875 44.33398438 C-32.48567608 46.43358891 -32.48836394 48.53320151 -32.48828125 50.6328125 C-32.50467651 51.61422714 -32.52107178 52.59564178 -32.53796387 53.60679626 C-32.49250888 58.12221342 -32.39744888 61.32244363 -29.4934082 64.921875 C-25.80891846 68.32773494 -22.85812559 69.20859426 -17.89453125 69.32421875 C-13.83838895 68.63530723 -10.97026715 67.62475757 -8.31152344 64.41040039 C-6.22974376 59.87632442 -6.46572962 55.66345638 -6.49609375 50.73046875 C-6.49322357 49.70618774 -6.49035339 48.68190674 -6.48739624 47.62658691 C-6.48535818 45.46475673 -6.49086997 43.30290801 -6.50341797 41.14111328 C-6.51947478 37.83584277 -6.50356001 34.53179507 -6.484375 31.2265625 C-6.48635748 29.12369522 -6.49020124 27.02082871 -6.49609375 24.91796875 C-6.49002106 23.93139282 -6.48394836 22.94481689 -6.47769165 21.92834473 C-6.53516385 15.12608745 -6.53516385 15.12608745 -9.89453125 9.32421875 C-16.74907397 4.80645196 -24.95992896 4.64515321 -30.53710938 11.27758789 Z " fill="#545557" transform="translate(146.89453125,114.67578125)"/>
<path d="M0 0 C2.59481673 1.83535817 3.70959884 2.84776316 4.484375 5.921875 C5.00288838 9.30455752 5.08803094 11.73590717 4 15 C0.72853515 16.56138095 -1.18255383 17.18578322 -4.75 16.375 C-7.34965421 14.78632243 -7.67399636 13.65200728 -9 11 C-12.68059537 8.95522479 -15.83467948 8.64550464 -20 9 C-22.55040714 9.85013571 -23.65294576 10.53147678 -25.25 12.6875 C-26.33306103 16.02693817 -26.42875125 18.50873983 -26 22 C-23.60416349 24.81331378 -23.60416349 24.81331378 -21 27 C-21 27.66 -21 28.32 -21 29 C-18.52282402 30.26575001 -16.08038291 31.37769988 -13.5 32.4375 C-6.51117184 35.99114144 0.79957641 41.78642291 4.46875 48.8125 C6.72156752 56.15501636 6.45156791 63.62384516 3.75 70.8125 C-0.03777036 77.71165315 -5.64641806 81.49425928 -13 84 C-21.32453916 85.37097153 -28.11149767 83.84882167 -35 79 C-38.88536009 75.7285268 -40.78012826 73.31923042 -41.625 68.25 C-41 65 -41 65 -39.3125 63.0625 C-36.53632314 61.78695928 -35.0186385 61.47173826 -32 62 C-29.6875 63.875 -29.6875 63.875 -28 66 C-28 66.66 -28 67.32 -28 68 C-22.09074853 70.05014847 -17.63874148 70.43634532 -11.625 68.0625 C-9.8327928 67.08547812 -9.8327928 67.08547812 -9 65 C-8.41091381 60.24523289 -8.07402505 56.32723076 -10.875 52.3125 C-14.327579 49.75759154 -17.81473408 47.26720658 -21.35546875 44.8359375 C-23.96611092 43.02352713 -26.52736536 41.16651326 -29.0625 39.25 C-29.79597656 38.69828125 -30.52945313 38.1465625 -31.28515625 37.578125 C-33 36 -33 36 -34 33 C-34.99 32.67 -35.98 32.34 -37 32 C-40.027497 26.71453701 -41.86806602 21.07646217 -41 15 C-38.91509951 7.78483876 -35.79006497 1.06914918 -29.29296875 -3.09375 C-19.45905661 -7.56559215 -8.74241864 -5.80025852 0 0 Z " fill="#535456" transform="translate(561,113)"/>
<path d="M0 0 C2.37625177 -0.10883596 4.74743976 -0.18766696 7.125 -0.25 C7.79015625 -0.28351563 8.4553125 -0.31703125 9.140625 -0.3515625 C14.29346769 -0.45259863 17.10254669 0.67869196 21 4 C23.94997981 7.75656475 24.37591941 10.56800689 24.38476562 15.28735352 C24.39487671 16.53537247 24.40498779 17.78339142 24.41540527 19.06922913 C24.41384933 19.7307152 24.4122934 20.39220127 24.41069031 21.07373238 C24.40619395 23.15484735 24.42026072 25.23512021 24.43908691 27.31614685 C24.48200785 32.48151493 24.49311865 37.64686281 24.50531006 42.81237793 C24.51684464 47.18434013 24.54041637 51.55591631 24.58000183 55.92771721 C24.59356002 57.97521627 24.58940453 60.02219118 24.58459473 62.06971741 C24.59470581 63.3145842 24.60481689 64.55945099 24.61523438 65.84204102 C24.61728882 66.93726578 24.61934326 68.03249054 24.62145996 69.16090393 C25.04132939 72.30997541 25.88233319 73.68264707 28 76 C24.125 75.125 24.125 75.125 23 74 C22.90634994 72.2507128 22.88255562 70.49763746 22.88647461 68.74584961 C22.88655014 67.62476303 22.88662567 66.50367645 22.88670349 65.34861755 C22.89186478 64.1288472 22.89702606 62.90907684 22.90234375 61.65234375 C22.9037587 60.41078018 22.90517365 59.16921661 22.90663147 57.89002991 C22.91129409 54.58394509 22.92028503 51.27792854 22.93133545 47.97186279 C22.94155173 44.6003885 22.94612955 41.22890717 22.95117188 37.85742188 C22.96222605 31.23826225 22.97898264 24.61913507 23 18 C22.01 17.67 21.02 17.34 20 17 C20 13.37 20 9.74 20 6 C17.525 5.01 17.525 5.01 15 4 C15 3.34 15 2.68 15 2 C10.71 2 6.42 2 2 2 C1.97494385 4.09956055 1.9498877 6.19912109 1.92407227 8.36230469 C1.84059443 15.29937745 1.75190899 22.2363766 1.66066074 29.17335129 C1.60549729 33.37921308 1.55208787 37.5850819 1.50268555 41.79101562 C1.4549449 45.84998814 1.40259869 49.90887752 1.34705925 53.96775055 C1.32667962 55.5162677 1.30795936 57.0648076 1.29092598 58.61336517 C1.26678453 60.78236613 1.23674364 62.95121117 1.20532227 65.12011719 C1.18977798 66.35477722 1.1742337 67.58943726 1.15821838 68.86151123 C1.02860395 71.43259961 0.75818804 73.55656704 0 76 C-0.99 76 -1.98 76 -3 76 C-3 76.66 -3 77.32 -3 78 C-4.65 78 -6.3 78 -8 78 C-7.67 78.99 -7.34 79.98 -7 81 C-6.13375 80.773125 -5.2675 80.54625 -4.375 80.3125 C-0.25419217 79.93094372 1.54566923 80.80178951 5 83 C5.66 83.99 6.32 84.98 7 86 C8.98 85.505 8.98 85.505 11 85 C11.33 86.98 11.66 88.96 12 91 C8.59687262 89.94124926 5.98646769 88.99097846 3 87 C-4.85066502 84.6210106 -13.25129218 85.90373122 -21 88 C-19.17251097 85.53686261 -17.77023784 84.16571382 -14.73046875 83.51171875 C-12.48520654 83.27481707 -10.25544422 83.09638651 -8 83 C-8.66 82.67 -9.32 82.34 -10 82 C-10 80.02 -10 78.04 -10 76 C-10.66 76 -11.32 76 -12 76 C-11.505 75.01 -11.505 75.01 -11 74 C-8.69 74.33 -6.38 74.66 -4 75 C-0.68568347 71.48026609 -0.6096666 68.77039275 -0.56762695 64.02832031 C-0.5574353 63.3352327 -0.54724365 62.64214508 -0.53674316 61.92805481 C-0.50662809 59.64466249 -0.4973499 57.36168977 -0.48828125 55.078125 C-0.47143339 53.49199023 -0.45328299 51.9058688 -0.43388367 50.31976318 C-0.38638889 46.15069752 -0.35657631 41.98168597 -0.33044434 37.81243896 C-0.30063608 33.55584021 -0.25410669 29.29942784 -0.20898438 25.04296875 C-0.12295724 16.69540409 -0.05560951 8.34782245 0 0 Z " fill="#B61418" transform="translate(390,121)"/>
<path d="M0 0 C3 0.5625 3 0.5625 5.15911865 2.67204285 C7.40736114 6.2021175 7.48498687 8.21051878 7.45410156 12.37231445 C7.45468567 13.03628738 7.45526978 13.70026031 7.45587158 14.38435364 C7.45309867 16.56537302 7.42204805 18.74500253 7.390625 20.92578125 C7.3831597 22.44320428 7.37746813 23.96063698 7.37347412 25.47807312 C7.35824032 29.46166856 7.3189788 33.4446757 7.2746582 37.42803955 C7.23365632 41.4968673 7.21545267 45.5657906 7.1953125 49.63476562 C7.1524816 57.61094631 7.0842585 65.58664986 7 73.5625 C7.495 73.0675 7.495 73.0675 8 72.5625 C8.99 72.0675 8.99 72.0675 10 71.5625 C9.67 72.8825 9.34 74.2025 9 75.5625 C7.68 75.5625 6.36 75.5625 5 75.5625 C4.84597945 67.04362272 4.69779995 58.52467225 4.5570364 50.0055666 C4.49148872 46.04963437 4.42394425 42.09375743 4.35180664 38.13793945 C4.28223901 34.31899508 4.21795547 30.49999469 4.15730476 26.68089867 C4.13326493 25.22526011 4.10733465 23.76965148 4.07946587 22.31408119 C4.04069993 20.27234191 4.00871132 18.23059878 3.97827148 16.1887207 C3.95828598 15.02734085 3.93830048 13.865961 3.91770935 12.66938782 C3.99292543 9.82960087 4.34112141 7.31864445 5 4.5625 C4.34 4.5625 3.68 4.5625 3 4.5625 C3 3.9025 3 3.2425 3 2.5625 C-1.47883696 3.00953986 -1.47883696 3.00953986 -5 5.5625 C-5.30096575 7.7273238 -5.30096575 7.7273238 -5.24723816 10.26255798 C-5.25143265 11.25384201 -5.25562714 12.24512604 -5.25994873 13.26644897 C-5.25432922 14.35793243 -5.24870972 15.44941589 -5.24291992 16.57397461 C-5.24481827 17.72036911 -5.24671661 18.86676361 -5.24867249 20.04789734 C-5.25239006 23.85361477 -5.24166139 27.65914315 -5.23046875 31.46484375 C-5.22927731 34.10038734 -5.22882371 36.73593137 -5.2290802 39.37147522 C-5.22814302 44.90221526 -5.21945271 50.43290052 -5.20581055 55.96362305 C-5.19009222 62.35971836 -5.18481216 68.75575362 -5.1855461 75.15186685 C-5.18615641 81.30067683 -5.18094226 87.44946403 -5.17275429 93.59826851 C-5.16956519 96.21661829 -5.16759965 98.83496984 -5.16686058 101.45332146 C-5.16469912 105.10945546 -5.15595872 108.76551317 -5.14526367 112.42163086 C-5.14571686 113.51109009 -5.14617004 114.60054932 -5.14663696 115.72302246 C-5.14237198 116.71712631 -5.13810699 117.71123016 -5.13371277 118.73545837 C-5.13203692 119.60026793 -5.13036108 120.4650775 -5.12863445 121.35609341 C-5.08581036 123.73919696 -5.08581036 123.73919696 -4 126.5625 C-1.69 126.8925 0.62 127.2225 3 127.5625 C3 127.8925 3 128.2225 3 128.5625 C-2.37660895 129.05128263 -2.37660895 129.05128263 -5.17137909 126.85998535 C-7.32691531 124.15176252 -7.5020535 122.96897704 -7.50793457 119.55273438 C-7.52485352 118.03860962 -7.52485352 118.03860962 -7.54211426 116.49389648 C-7.52996887 114.84176147 -7.52996887 114.84176147 -7.51757812 113.15625 C-7.5245874 111.9916626 -7.53159668 110.8270752 -7.53881836 109.62719727 C-7.55644432 105.77205667 -7.54475841 101.91764826 -7.53125 98.0625 C-7.53394357 95.38736047 -7.53781853 92.71224331 -7.54284668 90.03710938 C-7.55012197 84.4283045 -7.54053871 78.81971037 -7.52148438 73.2109375 C-7.49971557 66.72832093 -7.50676705 60.24620758 -7.52879 53.76360321 C-7.54694759 48.19573411 -7.54950066 42.62801641 -7.53903532 37.06012726 C-7.53280222 33.7355433 -7.53353198 30.41124748 -7.54518127 27.08666992 C-7.55531748 23.38034843 -7.53988485 19.67499893 -7.51757812 15.96875 C-7.52567505 14.86732666 -7.53377197 13.76590332 -7.54211426 12.63110352 C-7.53083496 11.62168701 -7.51955566 10.61227051 -7.50793457 9.57226562 C-7.50642647 8.69622681 -7.50491837 7.82018799 -7.50336456 6.91760254 C-6.59175859 2.65245219 -4.16852809 0.78159902 0 0 Z " fill="#464648" transform="translate(246,68.4375)"/>
<path d="M0 0 C2.9375 0.5 2.9375 0.5 4.6027832 2.02832031 C6.47244188 5.49062587 6.31011636 8.71498334 6.23046875 12.546875 C6.22622391 13.31807678 6.22197906 14.08927856 6.21760559 14.8838501 C6.20085383 17.33959315 6.16320939 19.79450629 6.125 22.25 C6.10994857 23.91795687 6.09626097 25.58592665 6.08398438 27.25390625 C6.05096194 31.33625578 5.99920484 35.41798732 5.9375 39.5 C6.96302979 39.48839844 7.98855957 39.47679687 9.04516602 39.46484375 C10.40641093 39.4554599 11.76765783 39.44636034 13.12890625 39.4375 C13.80296509 39.42912109 14.47702393 39.42074219 15.17150879 39.41210938 C20.1316785 39.3879208 24.24415052 39.96747772 28.9375 41.5 C25.97990205 42.37000537 23.49886349 42.57704118 20.42578125 42.4140625 C19.58595703 42.37023437 18.74613281 42.32640625 17.88085938 42.28125 C17.01267578 42.2296875 16.14449219 42.178125 15.25 42.125 C14.37021484 42.08117187 13.49042969 42.03734375 12.58398438 41.9921875 C6.06796556 41.63046556 6.06796556 41.63046556 4.9375 40.5 C4.78980783 38.02786915 4.70252282 35.58008621 4.65625 33.10546875 C4.62863586 31.98982292 4.62863586 31.98982292 4.60046387 30.85163879 C4.54154235 28.46367527 4.48883717 26.07563789 4.4375 23.6875 C4.36973028 20.55584229 4.29596046 17.4244062 4.21875 14.29296875 C4.20517456 13.57304245 4.19159912 12.85311615 4.1776123 12.1113739 C4.09537118 8.78003853 3.95440437 5.68914797 2.9375 2.5 C-0.61945103 2.16565962 -0.61945103 2.16565962 -3.70554829 3.70681477 C-5.48137754 6.0535385 -5.44579936 7.45021939 -5.46122742 10.37846375 C-5.47376556 11.38387207 -5.48630371 12.3892804 -5.4992218 13.42515564 C-5.49778671 14.5271077 -5.49635162 15.62905975 -5.49487305 16.7644043 C-5.5050647 17.92551727 -5.51525635 19.08663025 -5.52575684 20.28292847 C-5.55600934 24.13007353 -5.56517173 27.97697011 -5.57421875 31.82421875 C-5.59105636 34.48795874 -5.60905892 37.1516652 -5.62861633 39.81538391 C-5.67231178 46.11575807 -5.70083993 52.41610628 -5.72393972 58.71658593 C-5.75097516 65.88951006 -5.79488761 73.06229967 -5.84022844 80.23512781 C-5.93311819 94.99000571 -6.00477906 109.74494161 -6.0625 124.5 C-6.3925 124.5 -6.7225 124.5 -7.0625 124.5 C-7.15592624 108.92307993 -7.22647072 93.34621065 -7.26974869 77.7690773 C-7.29037723 70.53638597 -7.31850311 63.30386868 -7.36425781 56.07128906 C-7.404117 49.76762773 -7.4299307 43.46409245 -7.43885398 37.1603086 C-7.44407052 33.82211357 -7.4584296 30.48456461 -7.48542023 27.14643097 C-7.51435375 23.42064311 -7.51846005 19.69560824 -7.51660156 15.96972656 C-7.53817322 14.30816528 -7.53817322 14.30816528 -7.56018066 12.61303711 C-7.55468201 11.59783997 -7.54918335 10.58264282 -7.54351807 9.53668213 C-7.54720524 8.65544804 -7.55089241 7.77421394 -7.55469131 6.86627579 C-6.65603211 2.5458511 -4.23200954 0.69094033 0 0 Z " fill="#3A3B3D" transform="translate(591.0625,68.5)"/>
<path d="M0 0 C0.33 0 0.66 0 1 0 C1.09267419 9.31848416 1.1637516 18.63680972 1.20724869 27.95565414 C1.22812503 32.28277614 1.25644312 36.60958288 1.30175781 40.93652344 C1.34521452 45.11217599 1.36913675 49.2875253 1.37950897 53.46338654 C1.38690072 55.0566307 1.40133521 56.64985824 1.42292023 58.24297333 C1.45195327 60.47452169 1.45595626 62.70481664 1.45410156 64.93652344 C1.46298401 66.20671326 1.47186646 67.47690308 1.48101807 68.7855835 C1 72 1 72 -0.7979126 74.44927979 C-3 76 -3 76 -6.6875 75.875 C-7.780625 75.58625 -8.87375 75.2975 -10 75 C-10.33 74.34 -10.66 73.68 -11 73 C-9.906875 73.020625 -8.81375 73.04125 -7.6875 73.0625 C-4.05615809 73.18544452 -4.05615809 73.18544452 -1 72 C-1.00222061 71.1127272 -1.00444122 70.22545441 -1.00672913 69.31129456 C-1.02672961 60.96755343 -1.04197289 52.62382031 -1.05181217 44.28006077 C-1.05704061 39.99000085 -1.06413753 35.69996067 -1.07543945 31.40991211 C-1.08626975 27.273206 -1.09227714 23.13651892 -1.09487724 18.99979973 C-1.09673124 17.41807696 -1.10035136 15.83635529 -1.10573006 14.25464058 C-1.1129424 12.04677162 -1.11399086 9.83898227 -1.11352539 7.63110352 C-1.115746 6.37201675 -1.11796661 5.11292999 -1.12025452 3.81568909 C-1 1 -1 1 0 0 Z " fill="#FED2D1" transform="translate(352,121)"/>
<path d="M0 0 C2.16699219 1.52441406 2.16699219 1.52441406 4 4 C4.34923596 6.82017427 4.46849209 9.23720263 4.390625 12.046875 C4.38496521 12.81807678 4.37930542 13.58927856 4.37347412 14.3838501 C4.35113589 16.83987279 4.30094763 19.29442055 4.25 21.75 C4.22993154 23.41794763 4.21168137 25.08591821 4.1953125 26.75390625 C4.15127992 30.83650323 4.08227283 34.91800181 4 39 C7.96 39 11.92 39 16 39 C16 39.66 16 40.32 16 41 C14.58566794 41.2236337 13.16832382 41.42826476 11.75 41.625 C10.96109375 41.74101563 10.1721875 41.85703125 9.359375 41.9765625 C6.49057404 42.00506052 5.22760881 41.84319844 3 40 C1.22249615 33.14653154 2.00510782 25.76378151 2.21484375 18.7421875 C2.22902344 17.79085937 2.24320313 16.83953125 2.2578125 15.859375 C2.2798877 14.99795898 2.30196289 14.13654297 2.32470703 13.24902344 C2.17116406 10.93047439 2.17116406 10.93047439 0.65185547 9.17675781 C-1.03150794 7.69931978 -1.03150794 7.69931978 -3.6875 8.3125 C-4.450625 8.539375 -5.21375 8.76625 -6 9 C-6 6 -6 6 -5 4 C-3.35 4.33 -1.7 4.66 0 5 C-0.33 4.01 -0.66 3.02 -1 2 C-2.65 2.33 -4.3 2.66 -6 3 C-6.66 4.98 -7.32 6.96 -8 9 C-8.33 9 -8.66 9 -9 9 C-9.36 3.6 -9.36 3.6 -7.875 1.125 C-5.07553259 -0.55468045 -3.20195936 -0.45742277 0 0 Z " fill="#4C4D4E" transform="translate(42,69)"/>
<path d="M0 0 C2.37625177 -0.10883596 4.74743976 -0.18766696 7.125 -0.25 C7.79015625 -0.28351563 8.4553125 -0.31703125 9.140625 -0.3515625 C14.29346769 -0.45259863 17.10254669 0.67869196 21 4 C23.81265976 7.84950312 24.37589519 10.55508371 24.38476562 15.28735352 C24.39487671 16.53537247 24.40498779 17.78339142 24.41540527 19.06922913 C24.41384933 19.7307152 24.4122934 20.39220127 24.41069031 21.07373238 C24.40619395 23.15484735 24.42026072 25.23512021 24.43908691 27.31614685 C24.48200785 32.48151493 24.49311865 37.64686281 24.50531006 42.81237793 C24.51684464 47.18434013 24.54041637 51.55591631 24.58000183 55.92771721 C24.59356002 57.97521627 24.58940453 60.02219118 24.58459473 62.06971741 C24.59470581 63.3145842 24.60481689 64.55945099 24.61523438 65.84204102 C24.61728882 66.93726578 24.61934326 68.03249054 24.62145996 69.16090393 C25.04132939 72.30997541 25.88233319 73.68264707 28 76 C24.125 75.125 24.125 75.125 23 74 C22.90634994 72.2507128 22.88255562 70.49763746 22.88647461 68.74584961 C22.88655014 67.62476303 22.88662567 66.50367645 22.88670349 65.34861755 C22.89186478 64.1288472 22.89702606 62.90907684 22.90234375 61.65234375 C22.9037587 60.41078018 22.90517365 59.16921661 22.90663147 57.89002991 C22.91129409 54.58394509 22.92028503 51.27792854 22.93133545 47.97186279 C22.94155173 44.6003885 22.94612955 41.22890717 22.95117188 37.85742188 C22.96222605 31.23826225 22.97898264 24.61913507 23 18 C22.01 17.67 21.02 17.34 20 17 C20 13.37 20 9.74 20 6 C18.35 5.34 16.7 4.68 15 4 C15 3.34 15 2.68 15 2 C13.2365625 2.0309375 13.2365625 2.0309375 11.4375 2.0625 C7.52586533 2.06947261 3.85502056 1.64250343 0 1 C0 0.67 0 0.34 0 0 Z " fill="#B9292F" transform="translate(390,121)"/>
<path d="M0 0 C0 3 0 3 -1.97338867 6.45458984 C-4.72529329 11.78607797 -4.5235202 16.83450914 -4.42578125 22.7265625 C-4.42249313 23.83301117 -4.41920502 24.93945984 -4.41581726 26.07943726 C-4.40014106 29.59503052 -4.3561165 33.10965473 -4.3125 36.625 C-4.30100091 38.99478389 -4.29121804 41.36457677 -4.28320312 43.734375 C-4.26977976 46.00261387 -4.25485698 48.27084447 -4.23828125 50.5390625 C-4.22720085 52.12831039 -4.22720085 52.12831039 -4.21589661 53.74966431 C-4.15329867 58.60126251 -4.0128368 63.23197009 -3 68 C-7.34149507 63.65850493 -7.24308456 58.16118273 -7.30354309 52.35952759 C-7.30263168 51.38752411 -7.30172028 50.41552063 -7.30078125 49.4140625 C-7.30506638 48.39831146 -7.3093515 47.38256042 -7.31376648 46.33602905 C-7.31949512 44.19277693 -7.32002088 42.04950537 -7.31567383 39.90625 C-7.3125173 36.6428884 -7.33598011 33.38043696 -7.36132812 30.1171875 C-7.36360174 28.02864697 -7.36430433 25.94010402 -7.36328125 23.8515625 C-7.37709587 22.39962997 -7.37709587 22.39962997 -7.39118958 20.91836548 C-7.33503229 12.61480419 -5.74045982 6.33430049 0 0 Z " fill="#4A4A4C" transform="translate(659,116)"/>
<path d="M0 0 C0.33 0.66 0.66 1.32 1 2 C0.67 2.66 0.34 3.32 0 4 C-0.09953141 5.4488902 -0.13829727 6.90220407 -0.14526367 8.35449219 C-0.15164352 9.25592957 -0.15802338 10.15736694 -0.16459656 11.08612061 C-0.16570938 12.06316956 -0.1668222 13.04021851 -0.16796875 14.046875 C-0.17129715 15.05083313 -0.17462555 16.05479126 -0.17805481 17.08917236 C-0.18312497 19.2176467 -0.18546311 21.34612901 -0.18530273 23.47460938 C-0.18748175 26.72279096 -0.20561596 29.97062889 -0.22460938 33.21875 C-0.22754481 35.28645717 -0.2295286 37.35416596 -0.23046875 39.421875 C-0.23765427 40.39082703 -0.24483978 41.35977905 -0.25224304 42.35809326 C-0.23557104 47.31123285 0.04312616 51.35624191 2 56 C1.01 55.67 0.02 55.34 -1 55 C-3.46194041 49.86041118 -3.2752311 44.75228669 -3.23046875 39.18359375 C-3.23001053 38.24951187 -3.22955231 37.31542999 -3.2290802 36.3530426 C-3.22606913 34.38549523 -3.21821725 32.41795001 -3.20581055 30.45043945 C-3.18754003 27.44408699 -3.18530119 24.43804287 -3.18554688 21.43164062 C-3.18063147 19.51562235 -3.17480305 17.59960615 -3.16796875 15.68359375 C-3.16629951 14.33967812 -3.16629951 14.33967812 -3.16459656 12.96861267 C-3.10040218 4.50493615 -3.10040218 4.50493615 -2 1 C-1.34 0.67 -0.68 0.34 0 0 Z " fill="#4B4B4C" transform="translate(667,125)"/>
<path d="M0 0 C0.66 0 1.32 0 2 0 C4.26872803 5.45271997 4.29084206 10.38213291 4.265625 16.18359375 C4.26753845 17.15732437 4.2694519 18.13105499 4.27142334 19.1342926 C4.27278048 21.18759419 4.26911703 23.2409045 4.26074219 25.29418945 C4.25004772 28.42353766 4.26064766 31.55231031 4.2734375 34.68164062 C4.2721156 36.68229292 4.26955256 38.68294487 4.265625 40.68359375 C4.26967346 41.61296249 4.27372192 42.54233124 4.27789307 43.49986267 C4.24052805 48.72168286 3.70296371 53.05557087 2 58 C1.11621764 54.96614838 0.88282537 52.28228732 0.90234375 49.12719727 C0.90564697 48.162621 0.9089502 47.19804474 0.91235352 46.20423889 C0.92065186 45.16875412 0.9289502 44.13326935 0.9375 43.06640625 C0.94128662 41.99631821 0.94507324 40.92623016 0.94897461 39.82371521 C0.96532389 35.2466059 0.99345703 30.66958585 1.02050781 26.0925293 C1.03858445 22.75049247 1.05068431 19.40847012 1.0625 16.06640625 C1.07494751 14.51621544 1.07494751 14.51621544 1.08764648 12.93470764 C1.09094971 11.96697922 1.09425293 10.99925079 1.09765625 10.00219727 C1.10289307 9.15488541 1.10812988 8.30757355 1.11352539 7.43458557 C0.99395615 4.87038784 0.56468512 2.50087052 0 0 Z " fill="#464648" transform="translate(81,123)"/>
<path d="M0 0 C3.74431084 0.79206575 6.3413378 1.36071022 9.125 4.0625 C9.74375 5.031875 10.3625 6.00125 11 7 C11.43441406 7.60585937 11.86882813 8.21171875 12.31640625 8.8359375 C16.7202477 15.58598508 16.91207068 22.14009608 17 30 C17.01901367 30.97243652 17.03802734 31.94487305 17.05761719 32.94677734 C17.11804886 36.21454598 17.15726817 39.4818181 17.1875 42.75 C17.20079346 43.82258057 17.21408691 44.89516113 17.2277832 46.00024414 C17.22866943 47.00563232 17.22955566 48.01102051 17.23046875 49.046875 C17.23457764 49.95276367 17.23868652 50.85865234 17.24291992 51.79199219 C17 54 17 54 15 56 C14.99589111 54.90123535 14.99178223 53.8024707 14.98754883 52.67041016 C14.96559689 48.55113312 14.91114415 44.43278966 14.84741211 40.31396484 C14.82437101 38.53931704 14.80986934 36.76453518 14.80444336 34.98974609 C15.03002835 20.66257197 15.03002835 20.66257197 9 8 C6.36573116 6.08125395 6.36573116 6.08125395 4 5 C4 4.01 4 3.02 4 2 C2.68 1.67 1.36 1.34 0 1 C0 0.67 0 0.34 0 0 Z " fill="#464547" transform="translate(688,110)"/>
<path d="M0 0 C1.20138679 2.40277358 1.10843991 3.85706489 1.08178711 6.53808594 C1.0752562 7.47956482 1.06872528 8.4210437 1.06199646 9.39105225 C1.05056107 10.41184875 1.03912567 11.43264526 1.02734375 12.484375 C1.01469266 14.6380192 1.00233206 16.79166512 0.99023438 18.9453125 C0.96544768 22.34673395 0.93751902 25.74806651 0.90405273 29.14941406 C0.87378613 32.42774006 0.85605103 35.70595352 0.83984375 38.984375 C0.82638412 39.99707458 0.8129245 41.00977417 0.79905701 42.05316162 C0.78104032 47.14068847 1.0275636 51.22497248 3 56 C3.36106097 57.66088045 3.70462173 59.32618981 4 61 C-4.13251071 51.9051353 -2.31870643 37.63360736 -2.26074219 26.05859375 C-2.24990062 23.47633012 -2.26076032 20.89474425 -2.2734375 18.3125 C-2.27211775 16.65624848 -2.26955918 14.99999737 -2.265625 13.34375 C-2.26967346 12.57913452 -2.27372192 11.81451904 -2.27789307 11.0267334 C-2.24179292 6.91270112 -1.83981358 3.70155146 0 0 Z " fill="#49484A" transform="translate(172,126)"/>
<path d="M0 0 C2.9375 0.5 2.9375 0.5 4.6027832 2.02832031 C6.47244188 5.49062587 6.31011636 8.71498334 6.23046875 12.546875 C6.22622391 13.31807678 6.22197906 14.08927856 6.21760559 14.8838501 C6.20085383 17.33959315 6.16320939 19.79450629 6.125 22.25 C6.10994857 23.91795687 6.09626097 25.58592665 6.08398438 27.25390625 C6.05096194 31.33625578 5.99920484 35.41798732 5.9375 39.5 C6.96302979 39.48839844 7.98855957 39.47679687 9.04516602 39.46484375 C10.40641093 39.4554599 11.76765783 39.44636034 13.12890625 39.4375 C13.80296509 39.42912109 14.47702393 39.42074219 15.17150879 39.41210938 C20.1316785 39.3879208 24.24415052 39.96747772 28.9375 41.5 C25.97990205 42.37000537 23.49886349 42.57704118 20.42578125 42.4140625 C19.58595703 42.37023437 18.74613281 42.32640625 17.88085938 42.28125 C17.01267578 42.2296875 16.14449219 42.178125 15.25 42.125 C14.37021484 42.08117187 13.49042969 42.03734375 12.58398438 41.9921875 C6.06796556 41.63046556 6.06796556 41.63046556 4.9375 40.5 C4.78980783 38.02786915 4.70252282 35.58008621 4.65625 33.10546875 C4.62863586 31.98982292 4.62863586 31.98982292 4.60046387 30.85163879 C4.54154235 28.46367527 4.48883717 26.07563789 4.4375 23.6875 C4.36973028 20.55584229 4.29596046 17.4244062 4.21875 14.29296875 C4.20517456 13.57304245 4.19159912 12.85311615 4.1776123 12.1113739 C4.09537118 8.78003853 3.95440437 5.68914797 2.9375 2.5 C-0.77986641 2.15099442 -0.77986641 2.15099442 -3.875 4 C-4.4628125 4.7425 -4.4628125 4.7425 -5.0625 5.5 C-5.7225 5.17 -6.3825 4.84 -7.0625 4.5 C-4.77418769 1.68361562 -3.64243036 0.59468251 0 0 Z " fill="#444346" transform="translate(591.0625,68.5)"/>
<path d="M0 0 C0.99 0.66 1.98 1.32 3 2 C2.649375 2.598125 2.29875 3.19625 1.9375 3.8125 C0.66695302 6.10813214 0.66695302 6.10813214 2 9 C2.33 8.01 2.66 7.02 3 6 C3.66 6 4.32 6 5 6 C4.75 8.375 4.75 8.375 4 11 C1.82579128 12.64939972 0.65600479 13.0596368 -2.0625 12.8125 C-4.35092745 11.85283687 -5.52086148 10.99683701 -7 9 C-7 7.68 -7 6.36 -7 5 C-6.34 5 -5.68 5 -5 5 C-5 4.34 -5 3.68 -5 3 C-4.360625 2.87625 -3.72125 2.7525 -3.0625 2.625 C-2.0415625 2.315625 -2.0415625 2.315625 -1 2 C-0.67 1.34 -0.34 0.68 0 0 Z " fill="#58595C" transform="translate(289,183)"/>
<path d="M0 0 C0.66 0 1.32 0 2 0 C-0.72234489 10.50323137 -0.72234489 10.50323137 -2.75 15.25 C-4.14237656 19.42712967 -3.6449675 21.7270903 -3 26 C-4.485 28.475 -4.485 28.475 -6 31 C-2.04 31.99 1.92 32.98 6 34 C6 34.66 6 35.32 6 36 C4.24859857 35.54705135 2.49892656 35.08741252 0.75 34.625 C-0.22453125 34.36976563 -1.1990625 34.11453125 -2.203125 33.8515625 C-4.65837303 33.10401491 -6.75617405 32.22876183 -9 31 C-6.69057419 20.34309655 -3.9362511 10.17940346 0 0 Z " fill="#B2171D" transform="translate(304,179)"/>
<path d="M0 0 C0.144375 0.598125 0.28875 1.19625 0.4375 1.8125 C0.8872439 3.56150404 1.42892341 5.28677023 2 7 C1.67 7.99 1.34 8.98 1 10 C1.39397335 12.63804589 1.39397335 12.63804589 2 15 C1.01 14.67 0.02 14.34 -1 14 C-1.33 15.32 -1.66 16.64 -2 18 C-2.66 17.67 -3.32 17.34 -4 17 C-4.99 18.98 -5.98 20.96 -7 23 C-8.31905049 20.36189903 -7.7310558 19.4933225 -6.85546875 16.71875 C-6.45811523 15.45611328 -6.45811523 15.45611328 -6.05273438 14.16796875 C-5.76720703 13.28753906 -5.48167969 12.40710938 -5.1875 11.5 C-4.77661133 10.17935547 -4.77661133 10.17935547 -4.35742188 8.83203125 C-2.25853311 2.25853311 -2.25853311 2.25853311 0 0 Z " fill="#C4171B" transform="translate(333,89)"/>
<path d="M0 0 C0.66 0.33 1.32 0.66 2 1 C1.51265381 1.52400391 1.02530762 2.04800781 0.52319336 2.58789062 C-1.47029412 5.74475171 -1.36878688 7.87610387 -1.37109375 11.59375 C-1.38849609 12.87121094 -1.40589844 14.14867187 -1.42382812 15.46484375 C-1.43390632 17.48589109 -1.4374943 19.50676057 -1.43579102 21.52783203 C-1.43936601 23.48740452 -1.46742492 25.44688397 -1.49609375 27.40625 C-1.49794678 28.57478516 -1.4997998 29.74332031 -1.50170898 30.94726562 C-2.09297038 34.56957454 -3.18954533 35.73295334 -6 38 C-5.67 37.01 -5.34 36.02 -5 35 C-4.97488468 32.94269682 -5.00964067 30.88444138 -5.078125 28.828125 C-5.10390625 27.60609375 -5.1296875 26.3840625 -5.15625 25.125 C-5.21838254 22.55685492 -5.29632098 19.98904004 -5.390625 17.421875 C-5.5172827 9.88574189 -5.29077134 5.55697367 0 0 Z " fill="#464648" transform="translate(255,158)"/>
<path d="M0 0 C0.66 0 1.32 0 2 0 C1.67547852 0.94601074 1.35095703 1.89202148 1.01660156 2.86669922 C-0.33097426 7.61025525 -0.28741469 12.23159589 -0.265625 17.1328125 C-0.26753845 18.08767548 -0.2694519 19.04253845 -0.27142334 20.02633667 C-0.27277852 22.03497584 -0.26912892 24.04362397 -0.26074219 26.05224609 C-0.25000954 29.12227022 -0.2606724 32.19171238 -0.2734375 35.26171875 C-0.27211625 37.21875129 -0.26955457 39.17578346 -0.265625 41.1328125 C-0.27169769 42.50483322 -0.27169769 42.50483322 -0.27789307 43.90457153 C-0.2450456 48.37471305 -0.11925772 51.94142154 2 56 C1.34 56 0.68 56 0 56 C-2.14550589 52.78174117 -2.25186893 51.92915969 -2.25878906 48.22485352 C-2.26824554 46.77303429 -2.26824554 46.77303429 -2.27789307 45.29188538 C-2.2738446 44.24810226 -2.26979614 43.20431915 -2.265625 42.12890625 C-2.26753845 41.05503159 -2.2694519 39.98115692 -2.27142334 38.8747406 C-2.27278494 36.60260789 -2.26909025 34.33046739 -2.26074219 32.05834961 C-2.25005297 28.57973739 -2.26063315 25.10164287 -2.2734375 21.62304688 C-2.2721157 19.41666553 -2.26955287 17.2102845 -2.265625 15.00390625 C-2.26967346 13.96214737 -2.27372192 12.92038849 -2.27789307 11.84706116 C-2.27158875 10.87602951 -2.26528442 9.90499786 -2.25878906 8.90454102 C-2.25719788 8.05199234 -2.25560669 7.19944366 -2.25396729 6.32106018 C-1.97918012 3.80972271 -1.26102772 2.17061604 0 0 Z " fill="#404144" transform="translate(185,124)"/>
<path d="M0 0 C2.37625177 -0.10883596 4.74743976 -0.18766696 7.125 -0.25 C7.79015625 -0.28351563 8.4553125 -0.31703125 9.140625 -0.3515625 C14.28175552 -0.45236898 17.06679432 0.75539709 21 4 C23.28062828 7.42094242 23.21925007 8.68187222 23.125 12.6875 C23.10695313 13.68136719 23.08890625 14.67523438 23.0703125 15.69921875 C23.04710937 16.45847656 23.02390625 17.21773437 23 18 C22.01 17.67 21.02 17.34 20 17 C20 13.37 20 9.74 20 6 C18.35 5.34 16.7 4.68 15 4 C15 3.34 15 2.68 15 2 C13.2365625 2.0309375 13.2365625 2.0309375 11.4375 2.0625 C7.52586533 2.06947261 3.85502056 1.64250343 0 1 C0 0.67 0 0.34 0 0 Z " fill="#C12228" transform="translate(390,121)"/>
<path d="M0 0 C0.99 0 1.98 0 3 0 C-0.85504407 15.09892262 -0.85504407 15.09892262 -4 22 C-4.66 22.33 -5.32 22.66 -6 23 C-5.814375 22.236875 -5.62875 21.47375 -5.4375 20.6875 C-4.77180827 17.91032625 -4.77180827 17.91032625 -6 15 C-5.34 15 -4.68 15 -4 15 C-4.061875 13.7625 -4.12375 12.525 -4.1875 11.25 C-4.20070871 7.50533015 -3.5931958 5.80065146 -1 3 C-0.67 2.01 -0.34 1.02 0 0 Z " fill="#C11519" transform="translate(488,205)"/>
<path d="M0 0 C3.76978582 3.51846677 5.74164898 5.89013333 6.375 11.0625 C6 14 6 14 4.375 15.875 C1.35171911 17.30708042 -0.69380676 17.4312426 -4 17 C-4.66 16.01 -5.32 15.02 -6 14 C-5.0925 14.185625 -4.185 14.37125 -3.25 14.5625 C-0.31685676 14.95734621 1.2644657 14.94691572 4 14 C4 13.01 4 12.02 4 11 C3.01 11.66 2.02 12.32 1 13 C0.375 11.25 0.375 11.25 0 9 C0.350625 8.360625 0.70125 7.72125 1.0625 7.0625 C2.31351705 4.92195681 2.31351705 4.92195681 1.125 2.25 C0.568125 1.13625 0.568125 1.13625 0 0 Z " fill="#444248" transform="translate(289,180)"/>
<path d="M0 0 C1.65 1.65 3.3 3.3 5 5 C5.69867188 4.62746094 6.39734375 4.25492187 7.1171875 3.87109375 C8.48230469 3.16146484 8.48230469 3.16146484 9.875 2.4375 C10.77992188 1.96183594 11.68484375 1.48617187 12.6171875 0.99609375 C13.79667969 0.50302734 13.79667969 0.50302734 15 0 C15.66 0.33 16.32 0.66 17 1 C15.61019248 2.13243576 14.21285323 3.25563119 12.8125 4.375 C12.03519531 5.00148438 11.25789063 5.62796875 10.45703125 6.2734375 C8.03120618 7.97807134 5.78690955 9.01987906 3 10 C2.71125 9.030625 2.4225 8.06125 2.125 7.0625 C1.35785318 3.89335797 1.35785318 3.89335797 -1 3 C-0.67 2.01 -0.34 1.02 0 0 Z " fill="#C7101B" transform="translate(481,91)"/>
<path d="M0 0 C2.46311892 4.42489504 3.50414543 9.23819088 4.8046875 14.1015625 C5.72507406 17.10644149 5.72507406 17.10644149 8.1328125 18.3984375 C8.74898437 18.59695312 9.36515625 18.79546875 10 19 C10 18.34 10 17.68 10 17 C11.65 17.33 13.3 17.66 15 18 C13.9375 19.5625 13.9375 19.5625 12 21 C8.5 21.125 8.5 21.125 5 20 C3.53745553 17.4783716 2.76929359 15.72503293 2 13 C1.608125 11.824375 1.21625 10.64875 0.8125 9.4375 C0.03426077 6.14494942 -0.16421399 3.36638685 0 0 Z " fill="#444446" transform="translate(771,176)"/>
<path d="M0 0 C0.33 0 0.66 0 1 0 C1.59661787 7.60687785 -0.6317221 13.83140498 -3 21 C-3.38459546 22.41409185 -3.76200228 23.83021054 -4.125 25.25 C-4.558125 26.61125 -4.558125 26.61125 -5 28 C-5.66 28.33 -6.32 28.66 -7 29 C-5.23076339 19.18877881 -2.58772786 9.62002647 0 0 Z " fill="#474749" transform="translate(794,111)"/>
<path d="M0 0 C1.485 0.99 1.485 0.99 3 2 C3.2667616 4.76628915 3.34804189 7.30619631 3.29296875 10.0703125 C3.28872391 10.86654022 3.28447906 11.66276794 3.28010559 12.48312378 C3.26328834 15.03075729 3.22563179 17.57760489 3.1875 20.125 C3.17245705 21.85024901 3.15876796 23.57551039 3.14648438 25.30078125 C3.11337501 29.53415782 3.06157285 33.76694559 3 38 C2.67 38 2.34 38 2 38 C2 27.11 2 16.22 2 5 C1.34 5 0.68 5 0 5 C0 3.35 0 1.7 0 0 Z " fill="#FFF6F7" transform="translate(423,122)"/>
<path d="M0 0 C1.5625 1.125 1.5625 1.125 3 3 C2.75 5.875 2.75 5.875 2 9 C1.814375 9.94875 1.62875 10.8975 1.4375 11.875 C1.293125 12.57625 1.14875 13.2775 1 14 C-1.20029834 11.79970166 -1.68582609 10.4218744 -2.625 7.5 C-3.01558594 6.30890625 -3.01558594 6.30890625 -3.4140625 5.09375 C-4 3 -4 3 -4 1 C-3.34 1 -2.68 1 -2 1 C-2 1.99 -2 2.98 -2 4 C-1.34 4 -0.68 4 0 4 C0 2.68 0 1.36 0 0 Z " fill="#BE292D" transform="translate(463,151)"/>
<path d="M0 0 C5.48499055 0.28868371 9.32376618 1.05562192 13.72265625 4.45703125 C15 6 15 6 15.4375 9.8125 C15.293125 10.864375 15.14875 11.91625 15 13 C14.443125 12.278125 13.88625 11.55625 13.3125 10.8125 C9.2439878 5.86430949 6.34807383 2.62392586 0 1 C0 0.67 0 0.34 0 0 Z " fill="#BE252D" transform="translate(409,109)"/>
<path d="M0 0 C0.33 0 0.66 0 1 0 C1 1.65 1 3.3 1 5 C0.01 5 -0.98 5 -2 5 C-2 5.66 -2 6.32 -2 7 C-3.65 7 -5.3 7 -7 7 C-7.33 8.32 -7.66 9.64 -8 11 C-8.33 11 -8.66 11 -9 11 C-9 9.02 -9 7.04 -9 5 C-9.66 5 -10.32 5 -11 5 C-10.67 4.34 -10.34 3.68 -10 3 C-7.69 3.33 -5.38 3.66 -3 4 C-2.2884375 3.01 -2.2884375 3.01 -1.5625 2 C-1.046875 1.34 -0.53125 0.68 0 0 Z " fill="#C32429" transform="translate(389,192)"/>
<path d="M0 0 C-2.92438625 0.88776011 -4.99831037 1.00028161 -8 0.5 C-13.7317904 -0.25594565 -19.27896602 0.37078306 -25 1 C-17.30966979 -4.12688681 -8.20015978 -3.96781925 0 0 Z " fill="#444446" transform="translate(140,110)"/>
<path d="M0 0 C0 0.66 0 1.32 0 2 C-1.65 2.66 -3.3 3.32 -5 4 C-5 5.65 -5 7.3 -5 9 C-5.99 8.67 -6.98 8.34 -8 8 C-8.99 8.33 -9.98 8.66 -11 9 C-11 8.34 -11 7.68 -11 7 C-11.99 6.67 -12.98 6.34 -14 6 C-12.04414675 4.99515796 -10.08523763 3.99626195 -8.125 3 C-6.48917969 2.1646875 -6.48917969 2.1646875 -4.8203125 1.3125 C-2 0 -2 0 0 0 Z " fill="#BA161B" transform="translate(465,79)"/>
<path d="M0 0 C0.99 0.33 1.98 0.66 3 1 C5.03581546 6.07320858 5.2295747 11.60499453 5 17 C2.91178985 13.86768478 2.24877798 11.56941553 1.375 7.9375 C0.98441406 6.34228516 0.98441406 6.34228516 0.5859375 4.71484375 C0 2 0 2 0 0 Z " fill="#B92428" transform="translate(454,133)"/>
<path d="M0 0 C1.6875 0.84375 1.6875 0.84375 2.9375 3.40625 C3.185 4.210625 3.4325 5.015 3.6875 5.84375 C2.6975 5.51375 1.7075 5.18375 0.6875 4.84375 C0.3575 4.18375 0.0275 3.52375 -0.3125 2.84375 C-3.34286227 3.2766589 -5.26252015 3.81205546 -7.875 5.46875 C-10.3125 6.84375 -10.3125 6.84375 -12.46484375 6.4296875 C-13.07457031 6.23632812 -13.68429687 6.04296875 -14.3125 5.84375 C-12.40368566 4.80830826 -10.48510796 3.79084915 -8.5625 2.78125 C-6.96148437 1.92853516 -6.96148437 1.92853516 -5.328125 1.05859375 C-2.3125 -0.15625 -2.3125 -0.15625 0 0 Z " fill="#AE141B" transform="translate(401.3125,54.15625)"/>
<path d="M0 0 C1.5329083 3.98556158 0.50278067 7.60568852 -0.375 11.625 C-0.51421875 12.305625 -0.6534375 12.98625 -0.796875 13.6875 C-1.84470663 18.68941327 -1.84470663 18.68941327 -3 21 C-3.66 21 -4.32 21 -5 21 C-3.94915607 13.69354394 -2.54322809 6.93607661 0 0 Z " fill="#B9262D" transform="translate(471,182)"/>
<path d="M0 0 C0.33 0 0.66 0 1 0 C0.125 6.75 0.125 6.75 -1 9 C-0.34 9.33 0.32 9.66 1 10 C-0.32 11.65 -1.64 13.3 -3 15 C-3.66 14.67 -4.32 14.34 -5 14 C-4.35799564 11.85301798 -3.71129254 9.70744047 -3.0625 7.5625 C-2.70285156 6.36753906 -2.34320313 5.17257813 -1.97265625 3.94140625 C-1 1 -1 1 0 0 Z " fill="#C32B2E" transform="translate(492,116)"/>
<path d="M0 0 C5.18125367 1.37150832 8.15472937 4.6233576 11 9 C11.875 12.4375 11.875 12.4375 12 15 C10.66666667 13.33333333 9.33333333 11.66666667 8 10 C6.88625 8.6696875 6.88625 8.6696875 5.75 7.3125 C4 5 4 5 4 3 C3.01 3 2.02 3 1 3 C0.67 2.01 0.34 1.02 0 0 Z " fill="#424244" transform="translate(140,111)"/>
<path d="M0 0 C2.4375 1.75 2.4375 1.75 4 4 C3.75 6.25 3.75 6.25 3 8 C2.566875 7.195625 2.13375 6.39125 1.6875 5.5625 C0.19525998 2.72153646 0.19525998 2.72153646 -3 2 C-3.99 2.33 -4.98 2.66 -6 3 C-7.22520264 6.00847418 -7.22520264 6.00847418 -8 9 C-8.33 9 -8.66 9 -9 9 C-9.36 3.6 -9.36 3.6 -7.875 1.125 C-5.07553259 -0.55468045 -3.20195936 -0.45742277 0 0 Z " fill="#454447" transform="translate(42,69)"/>
<path d="M0 0 C0 3.5094654 -0.5925541 5.7829808 -2 9 C-4.4375 10.9375 -4.4375 10.9375 -7 12 C-7.99 11.67 -8.98 11.34 -10 11 C-9.278125 10.484375 -8.55625 9.96875 -7.8125 9.4375 C-4.49943158 6.56617403 -2.44284263 3.6293662 0 0 Z " fill="#BE262D" transform="translate(461,216)"/>
<path d="M0 0 C1.32 0.33 2.64 0.66 4 1 C1.68186264 3.72678337 -0.00015391 4.46169309 -3.5 5.0625 C-6.78172852 5.63680249 -8.12102671 6.08068448 -11 8 C-11 7.01 -11 6.02 -11 5 C-7.37 3.68 -3.74 2.36 0 1 C0 0.67 0 0.34 0 0 Z " fill="#C02E34" transform="translate(443,213)"/>
<path d="M0 0 C0.66 0.33 1.32 0.66 2 1 C0.7934375 1.8971875 0.7934375 1.8971875 -0.4375 2.8125 C-3.22327984 4.80947276 -3.22327984 4.80947276 -4 8 C-5.31200404 9.35432675 -6.64631404 10.68733482 -8 12 C-8.66 12.99 -9.32 13.98 -10 15 C-9.71254769 9.10722765 -7.08870276 5.94631012 -3 2 C-2.01 1.34 -1.02 0.68 0 0 Z " fill="#434244" transform="translate(113,111)"/>
<path d="M0 0 C0.66 0.33 1.32 0.66 2 1 C-1.85055644 8.42607313 -1.85055644 8.42607313 -6 10 C-6.33 10.66 -6.66 11.32 -7 12 C-7.66 11.67 -8.32 11.34 -9 11 C-8.51789063 10.45730469 -8.03578125 9.91460937 -7.5390625 9.35546875 C-6.90742188 8.64003906 -6.27578125 7.92460937 -5.625 7.1875 C-4.68527344 6.12595703 -4.68527344 6.12595703 -3.7265625 5.04296875 C-1.859401 2.91196181 -1.859401 2.91196181 0 0 Z " fill="#434445" transform="translate(270,123)"/>
<path d="M0 0 C2 1 2 1 4 4 C5.32 3.67 6.64 3.34 8 3 C8.33 4.98 8.66 6.96 9 9 C5.59687262 7.94124926 2.98646769 6.99097846 0 5 C-0.1875 2.375 -0.1875 2.375 0 0 Z " fill="#C21119" transform="translate(393,203)"/>
<path d="M0 0 C0.66 0 1.32 0 2 0 C1.35155914 4.19283118 0.48783354 8.26499921 -0.5625 12.375 C-0.83191406 13.43460938 -1.10132813 14.49421875 -1.37890625 15.5859375 C-1.58386719 16.38257813 -1.78882813 17.17921875 -2 18 C-2.33 18 -2.66 18 -3 18 C-3.36517527 11.42684522 -2.13619737 6.20514474 0 0 Z " fill="#B0181C" transform="translate(494,186)"/>
<path d="M0 0 C2.9375 0.5625 2.9375 0.5625 4.8125 3.0625 C5.18375 3.8875 5.555 4.7125 5.9375 5.5625 C4.9475 6.0575 4.9475 6.0575 3.9375 6.5625 C3.6075 5.2425 3.2775 3.9225 2.9375 2.5625 C-0.77986641 2.21349442 -0.77986641 2.21349442 -3.875 4.0625 C-4.4628125 4.805 -4.4628125 4.805 -5.0625 5.5625 C-5.7225 5.2325 -6.3825 4.9025 -7.0625 4.5625 C-4.78345413 1.75752047 -3.6110163 0.66324789 0 0 Z " fill="#49494B" transform="translate(591.0625,68.4375)"/>
<path d="M0 0 C0.33 0.99 0.66 1.98 1 3 C0.07421875 4.82421875 0.07421875 4.82421875 -1.3125 6.6875 C-1.76238281 7.31011719 -2.21226562 7.93273437 -2.67578125 8.57421875 C-3.11277344 9.04472656 -3.54976562 9.51523438 -4 10 C-4.66 10 -5.32 10 -6 10 C-5.58578031 5.16743695 -3.53586014 3.17320782 0 0 Z " fill="#49494B" transform="translate(564,181)"/>
<path d="M0 0 C0.33 0.66 0.66 1.32 1 2 C2.65 1.67 4.3 1.34 6 1 C5.67 2.32 5.34 3.64 5 5 C4.34 5 3.68 5 3 5 C3.33 7.31 3.66 9.62 4 12 C2.09681116 9.14521674 1.5380901 7.58058692 0.875 4.3125 C0.70742188 3.50425781 0.53984375 2.69601563 0.3671875 1.86328125 C0.24601562 1.24839844 0.12484375 0.63351563 0 0 Z " fill="#C2262C" transform="translate(450,120)"/>
<path d="M0 0 C4.3124594 1.59720719 6.42143673 4.31633819 9 8 C8.8125 10.375 8.8125 10.375 8 12 C7.4121875 10.6696875 7.4121875 10.6696875 6.8125 9.3125 C4.93384477 5.87909562 2.82550215 3.6727723 0 1 C0 0.67 0 0.34 0 0 Z " fill="#404143" transform="translate(556,153)"/>
<path d="M0 0 C0 0.33 0 0.66 0 1 C-1.423125 1.37125 -1.423125 1.37125 -2.875 1.75 C-6.06241341 2.67908894 -6.06241341 2.67908894 -7.3125 5 C-7.6528125 5.99 -7.6528125 5.99 -8 7 C-8.33 7.66 -8.66 8.32 -9 9 C-10 8 -10 8 -10.0625 4.9375 C-10.041875 3.968125 -10.02125 2.99875 -10 2 C-6.5980513 -0.09350689 -3.94727588 -0.17942163 0 0 Z " fill="#CA3E45" transform="translate(443,107)"/>
<path d="M0 0 C2.00993705 3.01490557 2.72623341 5.2149927 3.625 8.6875 C3.88539063 9.68136719 4.14578125 10.67523438 4.4140625 11.69921875 C4.60742188 12.45847656 4.80078125 13.21773437 5 14 C4.01 13.67 3.02 13.34 2 13 C0.5946484 8.56204759 -0.29241839 4.67869431 0 0 Z " fill="#B8282C" transform="translate(435,118)"/>
<path d="M0 0 C1.45823212 -0.0270043 2.91660675 -0.04639787 4.375 -0.0625 C5.18710937 -0.07410156 5.99921875 -0.08570313 6.8359375 -0.09765625 C9 0 9 0 11 1 C11 1.66 11 2.32 11 3 C9.741875 2.87625 8.48375 2.7525 7.1875 2.625 C6.12595703 2.52058594 6.12595703 2.52058594 5.04296875 2.4140625 C3 2 3 2 0 0 Z " fill="#B3151F" transform="translate(462,261)"/>
<path d="M0 0 C0.33 0 0.66 0 1 0 C1.3125 3.25 1.3125 3.25 1 7 C-1.5 9.4375 -1.5 9.4375 -4 11 C-4.66 10.34 -5.32 9.68 -6 9 C-4.7934375 7.88625 -4.7934375 7.88625 -3.5625 6.75 C-1.23011409 4.24695171 -0.36465606 3.2819045 0 0 Z " fill="#FDEAE6" transform="translate(450,207)"/>
<path d="M0 0 C1.485 0.99 1.485 0.99 3 2 C3.29296875 5.0390625 3.29296875 5.0390625 3.1875 8.625 C3.16042969 9.81351563 3.13335937 11.00203125 3.10546875 12.2265625 C3.07066406 13.14179688 3.03585937 14.05703125 3 15 C2.67 15 2.34 15 2 15 C2 11.7 2 8.4 2 5 C1.34 5 0.68 5 0 5 C0 3.35 0 1.7 0 0 Z " fill="#FBE9E6" transform="translate(423,122)"/>
<path d="M0 0 C0 3.44360632 -0.79591532 4.74795392 -2.5 7.6875 C-2.9640625 8.49574219 -3.428125 9.30398437 -3.90625 10.13671875 C-4.2671875 10.75160156 -4.628125 11.36648437 -5 12 C-5.33 11.01 -5.66 10.02 -6 9 C-4.78515625 6.73828125 -4.78515625 6.73828125 -3.0625 4.3125 C-2.49660156 3.50425781 -1.93070313 2.69601563 -1.34765625 1.86328125 C-0.90292969 1.24839844 -0.45820312 0.63351563 0 0 Z " fill="#464647" transform="translate(659,116)"/>
<path d="M0 0 C0.66 0.33 1.32 0.66 2 1 C-4.07439825 5.90153173 -4.07439825 5.90153173 -7.9375 6.3125 C-8.618125 6.209375 -9.29875 6.10625 -10 6 C-6.87511433 3.47605388 -3.68685613 1.60298093 0 0 Z " fill="#B2101E" transform="translate(496,91)"/>
<path d="M0 0 C2.97 0.33 5.94 0.66 9 1 C8.67 1.66 8.34 2.32 8 3 C5.6568787 2.74438677 3.32156597 2.40729228 1 2 C0.67 1.34 0.34 0.68 0 0 Z " fill="#FEEAE4" transform="translate(341,194)"/>
<path d="M0 0 C3.68754757 0.49831724 5.60490662 1.10067643 8 4 C7.67 4.66 7.34 5.32 7 6 C6.34 5.34 5.68 4.68 5 4 C3.9790625 3.7834375 3.9790625 3.7834375 2.9375 3.5625 C2.298125 3.376875 1.65875 3.19125 1 3 C0.67 2.01 0.34 1.02 0 0 Z " fill="#B31824" transform="translate(404,122)"/>
</svg>
